<?xml version="1.0" encoding="utf-8"?>
<!DOCTYPE svg PUBLIC "-//W3C//DTD SVG 1.1//EN" "http://www.w3.org/Graphics/SVG/1.1/DTD/svg11.dtd">
<svg version="1.1" id="Layer_1" xmlns="http://www.w3.org/2000/svg" xmlns:xlink="http://www.w3.org/1999/xlink" x="0px" y="0px"
	 viewBox="0 0 1760 1920" enable-background="new 0 0 1760 1920" xml:space="preserve">
<g id="_x23_ffffffff">
</g>
<g>
	<path fill="#F78D66" stroke="#F78D66" stroke-width="0.0938" d="M838.9,26.76c8.96-1.44,18.0699-1.17,27.09-2.01
		c32.36-0.17,65.02,3.92,95.67,14.62c28.6201,9.83,55.53,25.46,76.8901,47.05c18.8899,18.51,33.1899,41.4,43.09,65.85
		c8.22,20.07,13.3199,41.28,16.53,62.68c-0.05,1.54,0.98,3.45-0.0701,4.78c-7.2,0.89-14.4,1.92-21.49,3.46
		c-3.84-28.57-11.71-57.13-26.91-81.85c-9-14.18-20.5299-27.46-35.59-35.35c12.03,11.47,19.11,26.9,24.13,42.49
		c8.3201,26.47,12.22,54.13,14.3101,81.72c-29.0001,10.76-54.6301,29.23-76.3801,50.99c-5.04,5.31-10.64,10.2-14.33,16.59
		c-9.13,8.07-15.67,18.44-22.84,28.17c-10.33,15.36-20.26,31.04-28.66,47.55c-5.94,10.29-11.02,21.06-15.79,31.93
		c-3.68,10.22-9.09,19.77-11.98,30.28c-14.14-20.7-33.32-37.48-54.31-50.97c-13.62-8.83-28.29-15.92-43.38-21.82
		c-18.58-7.26-37.92-12.82-57.69-15.62c1.92-0.08,3.86-0.17,5.8-0.25c1.19-0.05,2.4-0.11,3.61-0.16c-0.47-10.67-1.53-21.3-2.6-31.92
		c-0.03-6.55-2.13-12.82-2.67-19.31c-2.29-8.68-3.33-17.64-5.96-26.24c-1.48-5.23-2.1-10.68-4.03-15.78
		c-2.1-5.67-2.88-11.97-6.66-16.87c-0.62-10.55-0.57-21.2,0.63-31.72c1.88-24.44,7.3-48.6,16.23-71.43
		c5.35-13.03,12.18-25.4,19.93-37.14c13.89-19.82,31.65-36.97,52.15-49.86c12.49-7.59,25.58-14.29,39.36-19.23
		C841.61,27.16,840.25,26.95,838.9,26.76z"/>
	<path fill="#F16D3C" stroke="#F16D3C" stroke-width="0.0938" d="M722.19,68.23c34.91-22.81,75.53-36.01,116.71-41.47
		c1.35,0.19,2.71,0.4,4.08,0.63c-13.78,4.94-26.87,11.64-39.36,19.23c-20.5,12.89-38.26,30.04-52.15,49.86
		c-7.75,11.74-14.58,24.11-19.93,37.14c-8.93,22.83-14.35,46.99-16.23,71.43c-1.2,10.52-1.25,21.17-0.63,31.72
		c-0.34,11.8,1.52,23.48,2.43,35.22c2.24,18.59,5.86,37,10.58,55.13c1.74,6.65,3.72,13.24,5.3,19.93c-1.94,0.08-3.88,0.17-5.8,0.25
		c-4.35-2.24-9.52-1.12-14.13-2.49c-7.68-0.61-15.36-1.46-23.08-1.36c-12.3,0.03-24.65-0.42-36.89,1.11
		c-1.61-8.99-4.75-17.62-6.66-26.54c-1.8-8.67-4.41-17.19-5.08-26.07c-2.69-11.9-3.7-24.06-4.7599-36.18
		c0.8199-4.24-0.44-8.48-0.34-12.73c0.09-8.69-0.12-17.39,0.3-26.07c1.21-6.9,1.11-13.97,2.53-20.84c0.68-2.79,1.15-5.63,1.41-8.5
		c0.22-0.1,0.66-0.3,0.88-0.4c0-7.43,3.51-14.11,4.93-21.26c2.56-6.42,4.64-13.03,7.57-19.31
		C668.27,114.52,692.76,87.37,722.19,68.23z"/>
	<path fill="#52C061" stroke="#52C061" stroke-width="0.0938" d="M490.05,104.91c41.26-4,84.12-0.27,122.37,16.56
		c14.89,6.43,28.83,15.02,41.45,25.19c-2.93,6.28-5.01,12.89-7.57,19.31c-1.42,7.15-4.93,13.83-4.93,21.26
		c-0.22,0.1-0.66,0.3-0.88,0.4c-0.26,2.87-0.73,5.71-1.41,8.5c-1.42,6.87-1.32,13.94-2.53,20.84c-0.42,8.68-0.21,17.38-0.3,26.07
		c-0.1,4.25,1.16,8.49,0.34,12.73c-1.32-3.14,0.16-6.74-1.42-9.8c-12.55-29.35-29.1-57.62-52.33-79.83
		c-21.61-21.96-49.2-37.8-78.81-46.14c-16.3-4.47-33.17-6.58-50.04-7.19c-1.52-0.11-3-0.42-4.47-0.77
		C462.75,108.35,476.43,106.44,490.05,104.91z"/>
	<path fill="#FEF5F0" stroke="#FEF5F0" stroke-width="0.0938" d="M1014.11,105.99c15.0601,7.89,26.59,21.17,35.59,35.35
		c15.2001,24.72,23.0701,53.28,26.91,81.85c-8.17,1.81-16.16,4.29-24.0599,7.01c-2.0901-27.59-5.99-55.25-14.3101-81.72
		C1033.22,132.89,1026.14,117.46,1014.11,105.99z"/>
	<path fill="#75CB82" stroke="#75CB82" stroke-width="0.0938" d="M369.57,145.63c24.6-15.1,51.49-26.41,79.4-33.73l0.55,0.14
		c1.47,0.35,2.95,0.66,4.47,0.77c16.87,0.61,33.74,2.72,50.04,7.19c29.61,8.34,57.2,24.18,78.81,46.14
		c23.23,22.21,39.78,50.48,52.33,79.83c1.58,3.06,0.1,6.66,1.42,9.8c1.06,12.12,2.0699,24.28,4.7599,36.18
		c0.67,8.88,3.28,17.4,5.08,26.07c1.91,8.92,5.05,17.55,6.66,26.54c-0.35,0.12-1.05,0.36-1.41,0.48
		c-19.96,1.71-39.76,5.93-58.67,12.61c-6.36,1.5-12.2,4.45-18.17,6.98c-6.57,2.04-12.86,4.96-18.71,8.54
		c-5.37,4.42-11.69,7.41-17.27,11.53c-4.25,3.2-9.34,5.27-12.97,9.29c-6.34,6.67-13.28,12.78-19.15,19.88
		c-5.23,3.94-7.76,10.16-11.98,15.01c-8.07,8.78-13.32,19.64-18.43,30.29c-6.59,13.08-11.03,27.12-14.71,41.25
		c-2.36,6.78-2.02,14.12-4.25,20.93c-1.28,3.63-1.47,7.5-1.94,11.29c-3.54,20.56-4.1,41.49-3.84,62.33
		c-0.2,11.03,0.47,22.04,1.09,33.04c1.35,6.29,0.46,12.82,1.99,19.08c0.93,3.5699,0.78,7.28,1.01,10.94
		c-16.46-11.82-31.61-25.41-46.15-39.51c-55.43-54.13-96.54-122.14-121.81-195.21c-14.68-41.91-23.15-86.93-17.54-131.33
		c3.75-29.48,14.2-58.21,31.13-82.69C318.9,183.27,342.95,162.07,369.57,145.63 M308.91,254.71c-11.07,17.7-15.78,38.61-17.13,59.24
		c-1.99,36.9,6.72,73.41,18.83,108.02c3.97-1.51,7.22-4.39,10.85-6.53c3.68-2.79,8.06-4.69,11.25-8.09
		c-4.43-11.18-7.49-22.85-10.83-34.39c-6.4-23.56-11.43-47.58-13.45-71.93c-1.18-18.56-0.8-38.01,7.46-55.09
		C313.01,248.37,310.95,251.58,308.91,254.71z"/>
	<path fill="#EF3888" stroke="#EF3888" stroke-width="0.0938" d="M1076.61,223.19c7.09-1.54,14.29-2.57,21.49-3.46
		c25.26-1.92,50.8101,0.71,75.11,7.9c35.15,10.3,67.98,28.02,96.7201,50.63c-0.4601,0.12-1.38,0.34-1.8501,0.46
		c-6.87-2.19-13.38-5.41-20.22-7.7c-19.25-6.46-39.51-10.07-59.84-9.9c-30.28,0.07-60.3101,8.23-87,22.39
		c-11.89,6.28-23.35,13.4-34.0701,21.52c-8.4399,6.85-17.2899,13.26-24.74,21.22c-38.16,36.3-66.84,81.47-88.8099,129.08
		c-10.82,24.21-20.23,49.09-27.57,74.57c-3.22,9.87-5.36,20.04-8.48,29.93c0.01-8.39,0.83-16.93-0.8-25.21
		c-2.54-35.11-13.34-70.13-33.98-98.91c2.89-10.51,8.3-20.06,11.98-30.28c4.77-10.87,9.85-21.64,15.79-31.93
		c8.4-16.51,18.33-32.19,28.66-47.55c7.17-9.73,13.71-20.1,22.84-28.17c3.69-6.39,9.29-11.28,14.33-16.59
		c21.75-21.76,47.38-40.23,76.3801-50.99C1060.45,227.48,1068.4399,225,1076.61,223.19z"/>
	<path fill="#E58658" stroke="#E58658" stroke-width="0.0938" d="M714.68,236.77c3.78,4.9,4.56,11.2,6.66,16.87
		c1.93,5.1,2.55,10.55,4.03,15.78c2.63,8.6,3.67,17.56,5.96,26.24c0.54,6.49,2.64,12.76,2.67,19.31c1.07,10.62,2.13,21.25,2.6,31.92
		c-1.21,0.05-2.42,0.11-3.61,0.16c-1.58-6.69-3.56-13.28-5.3-19.93c-4.72-18.13-8.34-36.54-10.58-55.13
		C716.2,260.25,714.34,248.57,714.68,236.77z"/>
	<path fill="#F1FBF3" stroke="#F1FBF3" stroke-width="0.0938" d="M308.91,254.71c2.04-3.13,4.1-6.34,6.98-8.77
		c-8.26,17.08-8.64,36.53-7.46,55.09c2.02,24.35,7.05,48.37,13.45,71.93c3.34,11.54,6.4,23.21,10.83,34.39
		c-3.19,3.4-7.57,5.3-11.25,8.09c-3.63,2.14-6.88,5.02-10.85,6.53c-12.11-34.61-20.82-71.12-18.83-108.02
		C293.13,293.32,297.84,272.41,308.91,254.71z"/>
	<path fill="#F262A0" stroke="#F262A0" stroke-width="0.0938" d="M1101.02,283.51c26.6899-14.16,56.72-22.32,87-22.39
		c20.33-0.17,40.59,3.44,59.84,9.9c6.84,2.29,13.35,5.51,20.22,7.7c0.4701-0.12,1.39-0.34,1.8501-0.46
		c27.72,22.37,51.24,49.99,68.85,80.95c10.5,18.71,18.73,38.79,23.34,59.77c4.75,20.63,5.73,42.08,3.36,63.1
		c-2.72,22.53-9.46,44.54-19.41,64.92c-7.2599-2.52-14.5699-4.96-21.5199-8.25c8.5199-18.69,14.6799-38.98,14.2799-59.7
		c0.05-7.84-0.87-15.74-3.37-23.18c0.9,16.84-5.39,32.97-12.83,47.76c-5.41,10.39-11.55,20.4-18.22,30.03
		c-3.66-1.92-7.8201-2.29-11.77-3.22c-13.36-2.99-27-4.73-40.67-5.46c-9.2,0.16-18.38-1.66-27.5699-0.49
		c-14.1801,0.92-28.4,2-42.38,4.67c-8.3,2-16.8201,3.05-24.88,5.98c-10.98,2.64-21.29,7.29-31.79,11.33
		c-16.65,7.69-32.5699,17.27-46.38,29.4c-14.62,11.43-26.1699,26.24-36.53,41.49c-3.8999,5.87-7.1599,12.13-10.86,18.12
		c-22.71-8.84-46.4399-15.39-70.6299-18.35c4.41-2.13,7.14-6.28,10.45-9.69c14.73-15.08,28.8199-30.9,40.65-48.38
		c11.36-14.45,20.3-30.57,29.68-46.33c11.11-20.33,20.4301-41.57,29-63.08c4.6801-14.14,9.96-28.1,13.36-42.62
		c0.74-3.75,2.39-7.24,3.0901-10.99c0.6899-3.62,0.85-7.36,2.1899-10.83c2.26-5.79,2.25-12.12,3.8101-18.1
		c1.59-6.24,1.7599-12.71,3.13-18.99c0.73-3.78,0.49-7.67,1.2999-11.43c2.8201-12.37,1.86-25.14,3.34-37.66
		C1100.73,293.85,1101.8199,288.65,1101.02,283.51z"/>
	<path fill="#F25693" stroke="#F25693" stroke-width="0.0938" d="M1066.95,305.03c10.7201-8.12,22.1801-15.24,34.0701-21.52
		c0.7999,5.14-0.29,10.34-0.0701,15.52c-1.48,12.52-0.5199,25.29-3.34,37.66c-0.8099,3.76-0.5699,7.65-1.2999,11.43
		c-1.3701,6.28-1.54,12.75-3.13,18.99c-1.5601,5.98-1.55,12.31-3.8101,18.1c-1.34,3.47-1.5,7.21-2.1899,10.83
		c-0.7001,3.75-2.3501,7.24-3.0901,10.99c-3.4,14.52-8.6799,28.48-13.36,42.62c-8.5699,21.51-17.89,42.75-29,63.08
		c-9.38,15.76-18.32,31.88-29.68,46.33c-11.83,17.48-25.92,33.3-40.65,48.38c-3.31,3.41-6.04,7.56-10.45,9.69
		c-3.83-0.17-7.58-0.95-11.35-1.5c-12.5-0.84-25.04-0.01-37.54-0.56c0.95-11.75,3.25-23.37,4.15-35.13
		c0.77-15.09,0.4-30.21,0.34-45.32c1.63,8.28,0.81,16.82,0.8,25.21c3.12-9.89,5.26-20.06,8.48-29.93
		c7.34-25.48,16.75-50.36,27.57-74.57c21.97-47.61,50.65-92.78,88.8099-129.08C1049.66,318.29,1058.51,311.88,1066.95,305.03z"/>
	<path fill="#7DAAE1" stroke="#7DAAE1" stroke-width="0.0938" d="M653.09,344.56c12.24-1.53,24.59-1.08,36.89-1.11
		c7.72-0.1,15.4,0.75,23.08,1.36c4.61,1.37,9.78,0.25,14.13,2.49c-4.38-0.12-8.82-1.08-13.14,0.04c5.05,2,10.2,3.85,15,6.42
		c-0.74,0.16-2.22,0.47-2.96,0.63c3.59,2.46,7.7,3.97,11.52,6.03c1.39,0.82,2.94,2.01,2.86,3.81c0.11,8.5,4.0601,16.47,9.19,23.06
		c3.06,4.11,0.94,9.95,3.92,14.08c3.06,4.11,3.59,9.34,4.86,14.16c1.07,0.31,2.15,0.62,3.23,0.94c0.65,3.29,1.11,6.63,2.07,9.86
		c1.07,3.79,4.38,6.3,6.01,9.8c1.9,4.37,5.66,7.75,6.69,12.53c1,5.89,8.24,8.3,8.06,14.65c1.53,0.8,3.47,1.25,4.41,2.87
		c1.56,2.57,0.7,5.94,2.35,8.5c2.07,3.53,4.79,6.61,7.08,9.99c1.87,2.71,2.04,6.28,4.2599,8.79c2.44,3.25,6.13,5.54,7.78,9.38
		c2.34,5.22,6.42,9.36,9.7,13.99c3.17,2.91,4.98,6.81,6.52,10.76c1.32,0.2599,2.64,0.53,3.98,0.81c1.03,2.7599,2.17,5.47,3.5,8.1
		c0.57-1.82,1.05-3.67,1.49-5.53c1.54,8.59,1.46,17.34,1.14,26.02c-0.31,4.35-1.16,8.71-0.58,13.07c0.09,1.1,0.67,1.91,1.73,2.45
		c-0.46,5.3-0.67,10.63-1.65,15.87c-5.85-2.25-10.86-6.09-15.95-9.65c-7.83-5.85-16.11-11.1-23.44-17.59
		c-2.82-2.55-5.92-4.74-8.97-6.98c-7.37-6.3-14.22-13.17-21.58-19.48c-6.9-6.1-12.28-13.64-19.01-19.89
		c-7.85-9.05-15.36-18.41-23.04-27.62c-1.58-1.91-4.02-3.45-4.23-6.15c-0.36-3.35-2.91-5.75-4.37-8.63
		c-1.77-3.5-5.29-5.82-6.41-9.68c-0.9901-3.4-4.39-5.14-5.85-8.25c-3.49-6.37-7.72-12.31-11.05-18.77
		c-1.78-3.43-4.87-5.96-6.56-9.44c-1.44-2.52-1.81-5.45-2.98-8.07c-4.5-3.9-5.28-10.11-7.53-15.32c-3.02-5.84-6.52-11.6-8.03-18.08
		c-2.19-5.73-3.95-11.63-6.57-17.19c-2.02-6.26-3.8-12.63-5-19.1c-0.82-0.05-1.63-0.09-2.44-0.13c-0.51-1.11-1.02-2.22-1.52-3.32
		C652.04,344.92,652.74,344.68,653.09,344.56z"/>
	<path fill="#73B2E7" stroke="#73B2E7" stroke-width="0.0938" d="M593.01,357.65c18.91-6.68,38.71-10.9,58.67-12.61
		c0.5,1.1,1.01,2.21,1.52,3.32c0.81,0.04,1.62,0.08,2.44,0.13c1.2,6.47,2.98,12.84,5,19.1c2.62,5.56,4.38,11.46,6.57,17.19
		c1.5099,6.48,5.0099,12.24,8.03,18.08c2.25,5.21,3.03,11.42,7.53,15.32c1.17,2.62,1.54,5.55,2.98,8.07
		c1.69,3.48,4.78,6.01,6.56,9.44c3.33,6.46,7.56,12.4,11.05,18.77c1.46,3.11,4.86,4.85,5.85,8.25c1.12,3.86,4.64,6.18,6.41,9.68
		c1.46,2.88,4.01,5.28,4.37,8.63c0.21,2.7,2.65,4.24,4.23,6.15c-3.97,8.52-4.7599,18.06-8.4,26.7
		c-7.49,21.03-15.76,41.84-26.53,61.42c-7.22,14.88-16.17,28.83-25.58,42.41c-5.56,7.47-10.38,15.5-16.48,22.56
		c-3.65,4.67-7.54,9.13-11.31,13.7c-4.22,5.41-9.47,9.87-14.03,14.98c-10.56,12.13-22.8,22.63-35.25,32.74
		c-2.03,1.68-4.48,3.05-5.79,5.41c3.56,6.48,9.1801,11.7,12.9301,18.12c3.23,3.86,6.3,7.85,8.85,12.21
		c3.38,3.71,5.44,8.36,8.83,12.05c0.2,1.61-2.17,1.34-3.17,1.92c-7.14,1.43-14.2,3.27-21.42,4.24c-4.75,0.64-9.13,2.79-13.88,3.45
		c-7.91,1.28-15.9,2.25-23.61,4.57c0.61,18.04,4.38,35.95,11.16,52.69c6.29,16.53,14.57,32.25,23.91,47.2599
		c6.03,8.95,10.85,18.73,17.91,26.98c11.59,16.65,23.82,32.85,36.48,48.7c-0.38,0.33-1.15,0.99-1.53,1.3199
		c-5.85-6.25-10.99-13.09-15.79-20.15c-4.34-4.76-7.39-10.46-11.5-15.4c-19.38-25.95-36.95-53.49-49.69-83.34
		c-6.29-16.94-12.11-34.47-12.46-52.7c0.15-3.49-2.58-6.46-1.85-9.98c1.44-10.44,2.74-20.9,3.54-31.4
		c0.41-4.89,1.73-9.72,1.46-14.64c-3-2.8-7.19-3.65-10.88-5.15c-12.54-4.96-24.25-11.6801-36.22-17.82
		c-8.78-5.51-18.16-10.13-26.29-16.6c-7.65-4.35-14.34-10.15-21.91-14.61l-0.04-0.78c-0.23-3.66-0.08-7.3701-1.01-10.94
		c-1.53-6.26-0.64-12.79-1.99-19.08c-0.62-11-1.29-22.01-1.09-33.04c-0.26-20.84,0.3-41.77,3.84-62.33
		c0.47-3.79,0.66-7.66,1.94-11.29c2.23-6.81,1.89-14.15,4.25-20.93c3.68-14.13,8.12-28.17,14.71-41.25
		c5.11-10.65,10.36-21.51,18.43-30.29c4.22-4.85,6.75-11.07,11.98-15.01c5.87-7.1,12.81-13.21,19.15-19.88
		c3.63-4.02,8.72-6.09,12.97-9.29c5.58-4.12,11.9-7.11,17.27-11.53c5.85-3.58,12.14-6.5,18.71-8.54
		C580.81,362.1,586.65,359.15,593.01,357.65 M534.66,426.73c-13.37,8.72-24,21.14-32.18,34.73c-10.71,17.69-17.46,37.5-21.96,57.6
		c-4.89,22.88-6.93,46.31-7,69.68c8.44-1.76,16.82-3.85,25.21-5.86c0.44-7.96,0.76-15.93,1-23.9c2.35-31.01,5.8-62.26,15.23-92.03
		c5.25-15.7,11.98-31.89,24.9-42.85C538.06,424.83,536.27,425.63,534.66,426.73z"/>
	<path fill="#5EA2ED" stroke="#5EA2ED" stroke-width="0.0938" d="M714.05,347.34c4.32-1.12,8.76-0.16,13.14-0.04
		c19.77,2.8,39.11,8.36,57.69,15.62c15.09,5.9,29.76,12.99,43.38,21.82c20.99,13.49,40.17,30.27,54.31,50.97
		c20.64,28.78,31.44,63.8,33.98,98.91c0.06,15.11,0.43,30.23-0.34,45.32c-0.9,11.76-3.2,23.38-4.15,35.13c-0.2,0.33-0.6,1-0.8,1.34
		c-0.76,0.14-1.51,0.3-2.24,0.48c-4.64,0.8-9.38,0.32-14.03,0.92c-21.41,2.39-42.7,6.76-62.9,14.35c-0.8,0.02-2.41,0.08-3.21,0.1
		c2.73-14.56,6.19-29.06,7.33-43.88c0.98-5.24,1.19-10.57,1.65-15.87c0.61-11.16,0.53-22.35,0.49-33.53
		c0.28-18.77-2.88-37.4-6.8-55.69c-3.66-12.55-6.85-25.34-12.6-37.14c-4.67-11.89-11.56-22.72-18.74-33.22
		c-3.64-5.94-8.59-10.88-12.86-16.34c-8.17-10.23-18.8199-18-29.05-26.02c-9.16-6.56-19.26-11.64-29.25-16.81
		C724.25,351.19,719.1,349.34,714.05,347.34z"/>
	<path fill="#7FAEE6" stroke="#7FAEE6" stroke-width="0.0938" d="M726.09,354.39c0.74-0.16,2.22-0.47,2.96-0.63
		c9.99,5.17,20.09,10.25,29.25,16.81c10.23,8.02,20.88,15.79,29.05,26.02c4.27,5.46,9.22,10.4,12.86,16.34
		c7.18,10.5,14.07,21.33,18.74,33.22c5.75,11.8,8.94,24.59,12.6,37.14c3.92,18.29,7.08,36.92,6.8,55.69
		c0.04,11.18,0.12,22.37-0.49,33.53c-1.06-0.54-1.64-1.35-1.73-2.45c-0.58-4.36,0.27-8.72,0.58-13.07
		c0.32-8.68,0.4-17.43-1.14-26.02c-0.44,1.86-0.92,3.71-1.49,5.53c-1.33-2.63-2.47-5.34-3.5-8.1c-1.34-0.28-2.66-0.55-3.98-0.81
		c-1.54-3.95-3.35-7.85-6.52-10.76c-3.28-4.63-7.36-8.77-9.7-13.99c-1.65-3.84-5.34-6.13-7.78-9.38
		c-2.22-2.51-2.39-6.08-4.2599-8.79c-2.29-3.38-5.01-6.46-7.08-9.99c-1.65-2.56-0.79-5.93-2.35-8.5
		c-0.94-1.62-2.8799-2.07-4.41-2.87c0.18-6.35-7.06-8.76-8.06-14.65c-1.03-4.78-4.79-8.16-6.69-12.53c-1.63-3.5-4.94-6.01-6.01-9.8
		c-0.96-3.23-1.42-6.57-2.07-9.86c-1.08-0.32-2.16-0.63-3.23-0.94c-1.27-4.82-1.8-10.05-4.86-14.16c-2.98-4.13-0.86-9.97-3.92-14.08
		c-5.1299-6.59-9.08-14.56-9.19-23.06c0.08-1.8-1.47-2.99-2.86-3.81C733.79,358.36,729.68,356.85,726.09,354.39z"/>
	<path fill="#F3F8FE" stroke="#F3F8FE" stroke-width="0.0938" d="M534.66,426.73c1.61-1.1,3.4-1.9,5.2-2.63
		c-12.92,10.96-19.65,27.15-24.9,42.85c-9.43,29.77-12.88,61.02-15.23,92.03c-0.24,7.97-0.56,15.94-1,23.9
		c-8.39,2.01-16.77,4.1-25.21,5.86c0.07-23.37,2.11-46.8,7-69.68c4.5-20.1,11.25-39.91,21.96-57.6
		C510.66,447.87,521.29,435.45,534.66,426.73z"/>
	<path fill="#FEF0F7" stroke="#FEF0F7" stroke-width="0.0938" d="M1335.46,455.87c2.5,7.44,3.42,15.34,3.37,23.18
		c0.4,20.72-5.76,41.01-14.2799,59.7c-12.5701,26.78-30.67,50.58-50.74,72.15c-2.7301,2.79-5.17,5.9-8.41,8.14
		c-4.37-7.42-9.15-14.59-13.4301-22.06c19.05-19.73,36.76-40.8,52.4401-63.32c6.6699-9.6299,12.8099-19.64,18.22-30.03
		C1330.0699,488.84,1336.36,472.71,1335.46,455.87z"/>
	<path fill="#7FB7F2" stroke="#7FB7F2" stroke-width="0.0938" d="M715.82,513.87c3.64-8.64,4.43-18.18,8.4-26.7
		c7.6801,9.21,15.19,18.57,23.04,27.62c6.73,6.25,12.11,13.79,19.01,19.89c7.36,6.31,14.21,13.18,21.58,19.48
		c3.05,2.2401,6.15,4.4301,8.97,6.98c7.33,6.49,15.61,11.74,23.44,17.59c5.09,3.56,10.1,7.4,15.95,9.65
		c-1.14,14.82-4.6,29.32-7.33,43.88c0.8-0.02,2.41-0.08,3.21-0.1c-4.48,1.77-9.11,3.2-13.4,5.4c-20.25,8.73-38.97,20.98-55.18,35.92
		c-28.21,26.26-47.26,61.48-56.74,98.64c-0.26-0.24-0.79-0.72-1.05-0.96c-2.55,9.15-4.1899,18.51-6.1899,27.77
		c-0.08,5.12-2.3701,9.91-2.11,15.05c0.32,6.43-2.05,12.6-1.94,19.02c-0.07,16.3-0.63,32.6-0.02,48.89
		c-2.54,4.5-6.85,7.59-9.86,11.74c-9,9.66-18.54,18.81-27.8199,28.2c-5.98,6.17-12.47,11.8-18.94,17.45
		c-12.66-15.85-24.89-32.05-36.48-48.7c-7.06-8.25-11.88-18.03-17.91-26.98c-9.34-15.0099-17.62-30.73-23.91-47.2599
		c-6.78-16.7401-10.55-34.65-11.16-52.69c7.71-2.32,15.7-3.29,23.61-4.57c4.75-0.66,9.13-2.81,13.88-3.45
		c7.22-0.97,14.28-2.81,21.42-4.24c1-0.58,3.37-0.31,3.17-1.92c-3.39-3.6899-5.45-8.34-8.83-12.05c-2.55-4.36-5.62-8.35-8.85-12.21
		c-3.75-6.42-9.3701-11.64-12.9301-18.12c1.31-2.36,3.76-3.73,5.79-5.41c12.45-10.11,24.69-20.61,35.25-32.74
		c4.56-5.11,9.81-9.57,14.03-14.98c3.77-4.57,7.66-9.03,11.31-13.7c6.1-7.06,10.92-15.09,16.48-22.56
		c9.41-13.58,18.36-27.53,25.58-42.41C700.06,555.71,708.33,534.9,715.82,513.87z"/>
	<path fill="#7FB7F2" stroke="#7FB7F2" stroke-width="0.0938" d="M455.72,658.81c7.57,4.46,14.26,10.26,21.91,14.61
		c8.13,6.47,17.51,11.09,26.29,16.6c11.97,6.14,23.68,12.86,36.22,17.82c3.69,1.5,7.88,2.35,10.88,5.15
		c0.27,4.92-1.05,9.75-1.46,14.64c-0.8,10.5-2.1,20.96-3.54,31.4c-0.73,3.52,2,6.49,1.85,9.98c0.35,18.23,6.17,35.76,12.46,52.7
		c12.74,29.85,30.31,57.39,49.69,83.34c4.11,4.94,7.16,10.64,11.5,15.4c4.8,7.06,9.94,13.9,15.79,20.15
		c-1.92,1.65-3.7,3.46-5.44,5.31c0.81,0.08,2.44,0.2401,3.26,0.33c-2,0.63-3.92,1.45-5.82,2.3c5.2,17.15,10.17,34.38,14.91,51.66
		c-3.52-0.38-7.0099-0.89-10.49-1.52c0.66-0.17,1.97-0.51,2.63-0.68c-6.37-16.12-13.25-32.05-20.19-47.94
		c0.16,8.73,2.67,17.23,4.13,25.82c1.24,7.13,2.86,14.2,3.66,21.4c-2.96-0.4301-5.91-0.88-8.84-1.45c-1.31-0.37-2.61-0.78-3.89-1.15
		c-0.73-15.89-0.89-31.8-1.67-47.68c-6.08,15-10.9,30.46-16.62,45.59c-3.96-0.61-7.93-1.1201-11.91-1.48
		c5.23-13.96,12.7-27.2,22.8799-38.16c1.17-1.5,3.3701-2.98,2.1201-5.1c-7.14,6.46-11.88,14.96-18.02,22.2401
		c0.52-2.81,2.06-5.25,3.32-7.76c3.15-6.16,6.11-12.42,9.41-18.49c-18.68-16.16-35.56-34.36-50.58-53.95
		c-48.89-63.02-80.24-138.99-92.44-217.67C456.93,667.76,456.5,663.26,455.72,658.81z"/>
	<path fill="#F25292" stroke="#F25292" stroke-width="0.0938" d="M1224.4,524.49c9.1899-1.17,18.37,0.65,27.5699,0.49
		c13.67,0.73,27.3101,2.47,40.67,5.46c3.95,0.93,8.11,1.3,11.77,3.22c-15.6801,22.52-33.39,43.59-52.4401,63.32
		c4.28,7.47,9.0601,14.64,13.4301,22.06c3.24-2.24,5.6799-5.35,8.41-8.14c20.0699-21.57,38.1699-45.37,50.74-72.15
		c6.95,3.29,14.26,5.73,21.5199,8.25c0.25,0.22,0.75,0.65,1,0.87c-0.5299,0.23-1.58,0.71-2.11,0.94
		c-3.2,7.06-6.76,13.99-11.26,20.32c-2.1499,8.08-8.75,13.73-12.8099,20.8c-11.77,16.88-26.21,31.64-40.4,46.48
		c-3.84,4.58-8.88,7.9301-12.75,12.48c-5.41,5.28-11.55,9.76-16.92,15.09c-9.0599,7.96-18.71,15.22-28.2599,22.55
		c-3.67,3.78-8.4501,6.08-12.6801,9.12c-9.15,6.29-18.26,12.68-28,18.03c-6.21,4.35-13.08,7.58-19.62,11.38
		c-6,3.41-12.4401,6.01-18.12,9.96c-3.63-5.64-6.1901-11.88-9.89-17.47c-5.6899-8.74-11.4399-17.53-18.66-25.1
		c-1.2-1.32-2.7-2.29-4.1899-3.2c-13.4-13.76-28.53-25.88-45.16-35.52c-2-1.15-3.89-2.43-5.8-3.68c2.13,0.48,4.26,1.04,6.3501,1.73
		c0.95-3.42,2.6499-6.54,3.85-9.86c3.27-12.82,10.89-24.01,19.23-34.06c-3.4301,0.77-6.29,2.89-9,5.02
		c-9.9301,7.43-16.85,17.92-24.3,27.66c-1.47,1.79-2.1,4.04-2.73,6.23c-3.6799-1.55-7.1699-3.46-10.7799-5.14
		c-2.6101-3.76-7.64-4.22-11.4801-6.15c3.7001-5.99,6.9601-12.25,10.86-18.12c10.3601-15.25,21.91-30.06,36.53-41.49
		c13.8101-12.13,29.73-21.71,46.38-29.4c10.5-4.04,20.8101-8.6899,31.79-11.33c8.0599-2.93,16.58-3.98,24.88-5.98
		C1196,526.49,1210.22,525.41,1224.4,524.49z"/>
	<path fill="#FF1F1F" stroke="#FF1F1F" stroke-width="0.0938" d="M1344.96,548.81c0.53-0.23,1.5801-0.71,2.11-0.94
		c34.5701,14.9,66.4601,37.67,88.3301,68.65c14.61,20.34,24.4399,43.89,29.78,68.3c9.6599,45.02,4.75,91.82-6.0801,136.15
		c-10.8099,43.98-27.35,86.67-50.41,125.7c-40.49,69.17-101.62,125.94-173.4299,161.4901c-16.41,8.0499-33.3,15.34-50.88,20.48
		c0.4-2.61,3.0699-3.8,4.76-5.5c6.79-5.51,12.91-11.76,19.3099-17.7001c6.02-4.99,10.7001-11.35,16.6901-16.3899
		c41.85-42.62,77.65-91.16,106.13-143.67c8.2-16.02,16.5499-32.01,23.37-48.69c16.72-39.5,29.02-81.06,34.4399-123.67
		c1.1801-11.67,2.87-23.31,2.7301-35.05c1.08-33-3.05-66.39-14.25-97.53c-8.39-23.21-20.9301-45.07-37.7401-63.21
		c-2.3099-2.48-5.13-4.72-6.12-8.1C1338.2,562.8,1341.76,555.87,1344.96,548.81z"/>
	<path fill="#FF4D4D" stroke="#FF4D4D" stroke-width="0.0938" d="M1320.89,589.93c4.0599-7.07,10.66-12.72,12.8099-20.8
		c0.99,3.38,3.8101,5.62,6.12,8.1c16.8101,18.14,29.3501,40,37.7401,63.21c11.2,31.14,15.33,64.53,14.25,97.53
		c0.1399,11.7401-1.55,23.38-2.7301,35.05c-5.4199,42.61-17.72,84.17-34.4399,123.67c-6.8201,16.68-15.17,32.67-23.37,48.69
		c-28.48,52.51-64.28,101.05-106.13,143.67c-5.99,5.0399-10.67,11.3999-16.6901,16.3899
		c-6.3999,5.9401-12.5199,12.1901-19.3099,17.7001c-1.6901,1.7-4.36,2.89-4.76,5.5c-0.3199,0.17-0.97,0.51-1.29,0.6799
		c0.0901,4.02,1.66,7.75,2.7101,11.5801c3.3899,11.71,6.6499,23.46,10.13,35.15c0.5399,1.7799,0.8199,3.61,1.13,5.46
		c-0.76-0.14-2.27-0.4301-3.03-0.58c-1.35-0.38-2.6801-0.8201-3.97-1.2101c-7.41-16.84-14.29-33.9199-21.8101-50.71
		c1.42,10.41,3.9399,20.64,5.66,31.01c0.9,6.1,2.95,12.1,2.72,18.34c-4.9-0.4-9.7-1.6-14.62-1.76c0.53-0.15,1.6-0.4399,2.13-0.59
		c0.5599-7.6801-0.73-15.33-0.67-23c-0.01-8.36-0.21-16.72-0.9199-25.04c-4.14,10.88-7.9,21.91-11.74,32.9
		c-1.4701,4.36-3.3301,8.61-4.17,13.17c-4.15-0.51-8.24-1.54-12.42-1.66c5.49-14.37,13.26-28.0699,24.01-39.17
		c1.12-1.0699,1.9501-2.5399,1.09-4.0699c-6.74,5.87-11.7899,13.39-16.8099,20.71c-0.1901-0.12-0.59-0.36-0.78-0.48l-0.36-0.21
		c4.45-7.9501,8.49-16.14,12.4401-24.35c-24.4301-20.3-44.7301-45.0601-63.3201-70.6901c0.1801-0.29,0.54-0.86,0.72-1.15
		c1.51-2.52,3.04-5.02,4.74-7.4199c3.9501-2.1101,5.2001-6.7001,7.4501-10.26c10.35-17.89,19.51-36.46,27.14-55.66
		c13.1699-34.23,23.77-69.63,29.0599-105.97c1.65-5.48,0.65-11.28,2.03-16.79c1.76-6.82,0.6899-13.9,1.15-20.84
		c-0.0801-10.63,0.13-21.28-0.3-31.9c-1.12-5.09-1.65-10.26-2.09-15.44c-1.9-9.04-3.5-18.17-6.2001-27.02
		c-2.71-9.12-6.4199-17.89-10.0499-26.65c5.6799-3.95,12.12-6.55,18.12-9.96c6.54-3.8,13.41-7.03,19.62-11.38
		c9.74-5.35,18.85-11.74,28-18.03c4.23-3.04,9.01-5.34,12.6801-9.12c9.5499-7.33,19.2-14.59,28.2599-22.55
		c5.37-5.33,11.51-9.81,16.92-15.09c3.87-4.55,8.91-7.9,12.75-12.48C1294.6801,621.57,1309.12,606.81,1320.89,589.93z"/>
	<path fill="#F2609F" stroke="#F2609F" stroke-width="0.0938" d="M1080.87,612.88c2.71-2.13,5.5699-4.25,9-5.02
		c-8.34,10.05-15.96,21.24-19.23,34.06c-1.2001,3.32-2.9,6.44-3.85,9.86c-2.0901-0.69-4.2201-1.25-6.3501-1.73
		c-2.21-1.1-4.3799-2.26-6.6-3.28c0.63-2.19,1.26-4.44,2.73-6.23C1064.02,630.8,1070.9399,620.31,1080.87,612.88z"/>
	<path fill="#E57673" stroke="#E57673" stroke-width="0.0938" d="M911.26,616.41c0.2-0.34,0.6-1.0099,0.8-1.34
		c12.5,0.55,25.04-0.28,37.54,0.56c3.77,0.55,7.52,1.33,11.35,1.5c24.19,2.96,47.92,9.51,70.6299,18.35
		c3.8401,1.93,8.87,2.39,11.4801,6.15c-20.1901-8.34-40.92-15.84-62.5101-19.57c-13.06-3.78-26.77-4.13-40.22-5.47
		C930.64,616.12,920.95,616.43,911.26,616.41z"/>
	<path fill="#FCE45C" stroke="#FCE45C" stroke-width="0.0938" d="M909.02,616.89c0.73-0.18,1.48-0.34,2.24-0.48
		c9.69,0.02,19.38-0.29,29.07,0.1801c13.45,1.34,27.16,1.69,40.22,5.47c-5.37,0.74-10.52-1.66-15.88-1.08
		c1.33,2.15,3.96,2.6,6.12,3.55c5.26,1.97,10.41,4.3,14.98,7.6299c4.36,3.31,9.88,4.59,14.16,8.03c3.69,2.92,7.98,5.1,11.26,8.53
		c2.75,2.98,6.58,4.9,8.56,8.58c4.47,7.11,11.5699,11.91,16.42,18.7c3.73,3.94,6.3099,8.78,10.1599,12.63
		c1.8501,4.58,5.17,8.28,7.54,12.59c3.6,5.75,6.48,11.94,8.95,18.25c1.5701,3.4,3.6801,6.5601,4.75,10.19
		c1.4501,4.81,4.2201,9.25,4.5701,14.3701c0.21,2.62,0.84,5.2,1.95,7.6c-0.2,4.07,0,8.16-0.35,12.23
		c-1.03,1.02-2.58,0.36-3.8099,0.42c-4.1101-0.4901-8.26-0.52-12.37-0.05c-0.8201,1.17-0.8701,3.44-2.67,3.52
		c-4.84,0.5-9.73-0.02-14.5701,0.44c-0.2899,1.71-0.3999,3.49-1,5.14c-4.4399,1.68-9.4099-0.28-13.8999,1.19
		c-6.36,2.74-13.39,0.8-20.0601,1.57c-0.13,2.77-0.36,5.54-0.61,8.3c-0.41-2.16-0.85-4.31-1.18-6.46c-3.27-0.75-6.52,0.38-9.75,0.71
		c-6.17,0.66-12.35,1.25-18.52,1.79c-0.8,0.05-1.59,0.12-2.37,0.21c-13.96,0.51-27.98,0.7-41.94,0.06
		c-2.22,0.19-6.15-1.82-6.82,1.41c-2.02,7.14-4.86,14.02-6.82,21.18c-2.22,8.12-5.43,15.91-7.94,23.94
		c-0.47-1.25-0.93-2.49-1.39-3.71c-0.21,0.94-0.39,1.9-0.57,2.86c-0.85,0.23-1.67,0.48-2.48,0.73
		c-8.25-6.08-17.0099-11.48-24.79-18.17c-8.24-6.78-17.76-12.01-25.23-19.69c10.4-6.98,21.96-12.08,32.68-18.55
		c4.42-2.82,9.61-4.26,13.66-7.67c-5.21-10.1201-9.96-20.4901-14.33-31.01c-2.43-5.35-3.75-11.16-6.54-16.34
		c2.6-6.98,6.45-13.52,8.21-20.82c1.62-7.27,6.27-13.5,7.58-20.87c0.74-3.3,2.48-6.29,3.13-9.62c0.59-2.98,0.81-6.08,2.09-8.87
		c2.17-4.96,2.95-10.37,4.59-15.5c1.6-5.23,2.08-10.69,2.32-16.12c-0.11-1.57,1.71-2.08,2.6299-3.02
		C910.3,619.53,909.66,618.21,909.02,616.89z"/>
	<path fill="#EEEA65" stroke="#EEEA65" stroke-width="0.0938" d="M832.09,632.16c20.2-7.59,41.49-11.96,62.9-14.35
		c4.65-0.6,9.39-0.12,14.03-0.92c0.64,1.32,1.28,2.64,1.95,3.97c-0.92,0.94-2.74,1.45-2.6299,3.02
		c-0.2401,5.43-0.72,10.89-2.32,16.12c-1.64,5.13-2.42,10.54-4.59,15.5c-1.28,2.79-1.5,5.89-2.09,8.87
		c-0.65,3.33-2.39,6.32-3.13,9.62c-1.31,7.37-5.96,13.6-7.58,20.87c-1.76,7.3-5.61,13.84-8.21,20.82
		c-1.85,6.78-5.48,12.89-8.47,19.21c-2.92,6.62-6.81,12.73-9.77,19.33c-5.3,8.42-10.01,17.2-15.33,25.61
		c-5.16,7.18-9.5,14.95-15.23,21.73c-13.27,17.86-27.64,34.93-43.86,50.19c-7.39,7.61-15.25,14.77-23.62,21.3
		c-17.75,15.37-37.36,28.41-57.29,40.77c-2.02,1.22-4.13,2.3-6.27,3.3c-0.85-2.64-1.91-5.27-1.94-8.08
		c-0.24-8.79,0.29-17.7599-1.85-26.36c-0.02-0.27-0.05-0.79-0.06-1.05c2.34-1.87,2.99-4.92,4.63-7.3c0.3,0.3,0.88,0.9,1.18,1.19
		c1.09-4.39,4.54-7.36,7.57-10.43c1.48-1.16,1.12-3.11,1.23-4.73c1.09,0.55,2.21,1.08,3.3199,1.64c-0.22-1.93-0.44-3.86-0.64-5.78
		c1.46,1.61,2.82,3.3,4.18,5c2.4,0.51,4.82-0.11,7.11-0.86c5.99-1.97,12.32-2.58,18.31-4.59c0.02-5.27-0.17-10.55,0.33-15.79
		c0.75-7.29,0.17-14.66,1.49-21.89c0.2-8.16,1.34-16.25,2.71-24.29c0.36,5.42-0.31,10.83-0.14,16.24c-0.06,2.35,1.71,4.1,2.96,5.91
		c-0.15-2.38-0.41-4.73-0.75-7.07c0.33-0.16,1-0.49,1.33-0.66c1.23-3.08,2.49-6.43,5.39-8.33c2.93-1.57,2.87-5.2,4.05-7.91
		c1.12-2.66,2.05-5.67,4.53-7.39c3.36-2.3701,4.65-6.5,6.02-10.1801c1.61-5.23,5.87-9.0099,7.88-14.05
		c1.54-4.14,5.16-6.91,7.27-10.69c1.14-1.99,1.11-4.36,1.6-6.54c0.18-2.55,3.02-3.77,3.5-6.18c0.43-3.56,2.86-6.37,3.6-9.84
		c1.25-5.35,5.86-9.1,7.15-14.45c0.92-3.73,1.72-7.78,5.1-10.1299c0.15-4.7401,2-9.15,2.87-13.76c2.31-1.82,4.17-4.23,5.23-6.98
		c0.63-3.82-0.81-8.5,3.09-10.97c-0.12-4.72,2.73-8.86,2.35-13.62c3.17-2.37,2.46-6.57,4.08-9.8c1.19-2.39,0.72-5.11,0.66-7.67
		c-2.48-0.49-4.9-1.23-7.23-2.17C822.98,635.36,827.61,633.93,832.09,632.16z"/>
	<path fill="#FCED3A" stroke="#FCED3A" stroke-width="0.0938" d="M964.67,620.98c5.36-0.58,10.51,1.82,15.88,1.08
		c21.59,3.73,42.32,11.23,62.5101,19.57c3.61,1.68,7.1,3.59,10.7799,5.14c2.2201,1.02,4.39,2.18,6.6,3.28
		c1.91,1.25,3.8,2.53,5.8,3.68c16.63,9.64,31.76,21.76,45.16,35.52c9.5499,11.08,18.75,22.58,25.73,35.51
		c21.59,38.73,27.4,84.51,23.35,128.19c-3.61,41.12-14.3199,81.38-28.9299,119.9c-7.77,20.33-17.04,40.1-27.87,58.98
		c-2.5,4.62-5.5,8.9601-7.7301,13.7201c-1.7,2.3999-3.23,4.8999-4.74,7.4199c-3.7799-2.3199-4.89-6.75-6.7-10.48
		c-0.91-2.73-4.59-2.59-5.83-5c-1.66-3.0699-2.7001-6.53-5.16-9.09c-2.05-2.0701-1.84-5.23-3.1801-7.64
		c-1.09-1-2.3099-1.81-3.37-2.8c-1.87-3.2401-1.6-7.71-4.7899-10.16c-3.6801-3.09-5.0701-7.87-6.9301-12.11
		c-1.16-2.49-1.41-5.23-1.67-7.9c-1.89,1.29-3.4299,3-4.9099,4.73c-1.3201-3.66,2.0199-7.17,0.7-10.84
		c-0.17-0.4-0.52-1.2-0.6899-1.61c2.7-4.92,1.98-11.26,6.2-15.33c2.6899-5.43,2.76-11.78,5.75-17.08c1.84-3.46,1.37-7.48,2.1-11.21
		c1.0601-4.03,3.99-7.34,4.61-11.51c0.91-4.19,0.5-8.86,3.0801-12.51c2.23-2.93,1.75-6.8,3-10.11c1.22-3.37,0.9199-6.97,1.08-10.48
		c0.11-3.82,1.5601-7.4,2.29-11.11c0.8199-4.25,1.49-8.52,2.3099-12.75c1.66-7.32,1.05-14.91,2.7101-22.23
		c1.0499-12.19,0.3799-24.47,0.59-36.69c0.23-5.71-1.02-11.32-1.52-16.98c-0.73-4.71-0.0601-9.58-1.42-14.19
		c-0.96-3.09-0.9199-6.38-1.95-9.42c-2.28-5.37-0.62-11.61-3.42-16.84c-1.11-2.4-1.74-4.98-1.95-7.6
		c-0.35-5.1201-3.12-9.5601-4.5701-14.3701c-1.0699-3.6299-3.1799-6.79-4.75-10.19c-2.47-6.31-5.35-12.5-8.95-18.25
		c-2.37-4.31-5.6899-8.0099-7.54-12.59c-3.85-3.85-6.4299-8.69-10.1599-12.63c-4.8501-6.79-11.9501-11.59-16.42-18.7
		c-1.98-3.68-5.81-5.6-8.56-8.58c-3.28-3.43-7.57-5.61-11.26-8.53c-4.28-3.44-9.8-4.72-14.16-8.03
		c-4.57-3.33-9.72-5.66-14.98-7.6299C968.63,623.58,966,623.13,964.67,620.98z"/>
	<path fill="#F3ED65" stroke="#F3ED65" stroke-width="0.0938" d="M763.51,673.48c16.21-14.94,34.93-27.19,55.18-35.92
		c2.33,0.94,4.75,1.68,7.23,2.17c0.06,2.56,0.53,5.28-0.66,7.67c-1.62,3.23-0.91,7.43-4.08,9.8c0.38,4.76-2.47,8.9-2.35,13.62
		c-3.9,2.47-2.46,7.15-3.09,10.97c-1.06,2.75-2.92,5.16-5.23,6.98c-0.87,4.61-2.72,9.02-2.87,13.76c-3.38,2.35-4.18,6.4-5.1,10.1299
		c-1.29,5.35-5.9,9.1-7.15,14.45c-0.74,3.47-3.17,6.28-3.6,9.84c-0.48,2.41-3.32,3.63-3.5,6.18c-0.49,2.18-0.46,4.55-1.6,6.54
		c-2.11,3.78-5.73,6.55-7.27,10.69c-2.01,5.04-6.27,8.82-7.88,14.05c-1.37,3.6801-2.66,7.81-6.02,10.1801
		c-2.48,1.72-3.41,4.73-4.53,7.39c-1.18,2.71-1.12,6.34-4.05,7.91c-2.9,1.9-4.16,5.25-5.39,8.33c-0.33,0.17-1,0.5-1.33,0.66
		c0.34,2.34,0.6,4.69,0.75,7.07c-1.25-1.81-3.02-3.56-2.96-5.91c-0.17-5.41,0.5-10.82,0.14-16.24c0.37-8.5,2.69-16.72,3.88-25.11
		c3.17-12.85,5.47-26.09,11.02-38.2c1.86-6.4,5.3-12.13,8.36-17.99c2.91-5.7,8.21-9.6,11.44-15.07
		c-11.2,6.49-20.89,15.51-28.31,26.1c-18.58,25.09-27.81,55.75-32.7,86.23c-1.59,8.68-2,17.51-3.14,26.25
		c-0.34,8.4-0.39,16.81-0.5,25.21c-1.36-1.7-2.72-3.39-4.18-5c0.2,1.92,0.42,3.85,0.64,5.78c-1.11-0.56-2.23-1.09-3.3199-1.64
		c-0.11,1.62,0.25,3.57-1.23,4.73c-3.03,3.0699-6.48,6.04-7.57,10.43c-0.3-0.29-0.88-0.89-1.18-1.19c-1.64,2.38-2.29,5.43-4.63,7.3
		c-0.53-6.19-0.25-12.41-0.34-18.61c0.11-9.35-0.31-18.74,0.96-28.03c0.65-21.25,4.63-42.21,9.42-62.87
		C716.25,734.96,735.3,699.74,763.51,673.48z"/>
	<path fill="#EA6B3E" stroke="#EA6B3E" stroke-width="0.0938" d="M1111.4,689.25c1.49,0.91,2.99,1.88,4.1899,3.2
		c7.2201,7.57,12.9701,16.36,18.66,25.1c3.7,5.59,6.26,11.83,9.89,17.47c3.63,8.76,7.34,17.53,10.0499,26.65
		c2.7001,8.85,4.3,17.98,6.2001,27.02c0.4399,5.18,0.97,10.35,2.09,15.44c0.4301,10.62,0.22,21.27,0.3,31.9
		c-0.4601,6.9399,0.61,14.02-1.15,20.84c-1.38,5.51-0.38,11.31-2.03,16.79c-5.2899,36.34-15.89,71.7401-29.0599,105.97
		c-7.63,19.2-16.79,37.77-27.14,55.66c-2.25,3.5599-3.5,8.1499-7.4501,10.26c2.2301-4.76,5.2301-9.1001,7.7301-13.7201
		c10.83-18.8799,20.1-38.65,27.87-58.98c14.61-38.52,25.3199-78.78,28.9299-119.9c4.05-43.68-1.76-89.46-23.35-128.19
		C1130.15,711.83,1120.95,700.33,1111.4,689.25z"/>
	<path fill="#FEFEF2" stroke="#FEFEF2" stroke-width="0.0938" d="M782.85,697.43c-3.23,5.47-8.53,9.37-11.44,15.07
		c-3.06,5.86-6.5,11.59-8.36,17.99c-5.55,12.11-7.85,25.35-11.02,38.2c-1.19,8.39-3.51,16.61-3.88,25.11
		c-1.37,8.04-2.51,16.13-2.71,24.29c-1.32,7.23-0.74,14.6-1.49,21.89c-0.5,5.24-0.31,10.52-0.33,15.79
		c-5.99,2.01-12.32,2.62-18.31,4.59c-2.29,0.75-4.71,1.37-7.11,0.86c0.11-8.4,0.16-16.81,0.5-25.21c1.14-8.74,1.55-17.57,3.14-26.25
		c4.89-30.48,14.12-61.14,32.7-86.23C761.96,712.94,771.65,703.92,782.85,697.43z"/>
	<path fill="#FEF365" stroke="#FEF365" stroke-width="0.0938" d="M880.42,715.68c2.79,5.18,4.11,10.99,6.54,16.34
		c4.37,10.52,9.12,20.89,14.33,31.01c-4.05,3.41-9.24,4.85-13.66,7.67c-10.72,6.47-22.28,11.57-32.68,18.55
		c7.47,7.68,16.99,12.91,25.23,19.69c7.78,6.69,16.54,12.09,24.79,18.17c-6.8799,16.44-18.5099,30.47-31.23,42.76
		c-12.16,12.66-26.67,22.7-40.97,32.77c-39.72,26.33-83.1,46.28-124.98,68.8c-1.44-5.42-1.9-11.03-3.18-16.48
		c-0.71-3.65-2.03-7.2-2.12-10.94c-0.04-9-3.53-17.92-1.91-26.9c2.14-1,4.25-2.08,6.27-3.3c19.9301-12.36,39.54-25.4,57.29-40.77
		c8.37-6.53,16.23-13.69,23.62-21.3c16.22-15.26,30.59-32.33,43.86-50.19c5.73-6.78,10.07-14.55,15.23-21.73
		c5.32-8.41,10.03-17.19,15.33-25.61c2.96-6.6,6.85-12.71,9.77-19.33C874.94,728.57,878.57,722.46,880.42,715.68z"/>
	<path fill="#FEF365" stroke="#FEF365" stroke-width="0.0938" d="M993.82,778.64c3.23-0.33,6.48-1.46,9.75-0.71
		c0.33,2.15,0.77,4.3,1.18,6.46c0.05,15.24,1.38,30.41,3.02,45.55c0.58,11.09,3.09,21.94,4.58,32.93
		c1.9301,8.22,2.6801,16.67,5.06,24.78c2.66,11.49,5.58,22.91,8.83,34.25c4.22,11.73,7.53,23.8,12.55,35.24
		c2.5,7.97,6.5299,15.31,9.89,22.93c0.1699,0.41,0.5199,1.21,0.6899,1.61c-2.23,4.88-3.89,10-6.0599,14.9
		c-4.28,7.85-7.1801,16.34-11.64,24.12c-3.04,4.86-4.6801,10.43-7.79,15.2599c-2.41,3.7101-3.63,8.0601-6.33,11.6001
		c-5.4,9.23-10.58,18.6-16.3,27.6399c-3.63,5.17-7.12,10.4301-10.36,15.8501c-4.67,6.88-9.97,13.3099-14.37,20.37
		c-2.01,3.5699-4.81,6.5299-7.54,9.5299c-2.91,4.6901-6.84,8.6001-10.12,13.02c-5.45,5.77-9.55,12.6801-15.48,18.02
		c-4.28-7.65-9.03-15.09-12.22-23.29c-9.46-21.2799-12.19-44.7-13.93-67.7c-0.86-19.35,0.5-38.68,1.65-57.98
		c0.44-20.82,4.52-41.35,9.72-61.44c3.2401-10.79,5.59-21.84,9.39-32.45c2.6-9.5,5.59-18.9,8.94-28.16
		c3.66-13.42,8.67-26.42,12.27-39.86c1.4-5.74,3.82-11.17,5.15-16.93c3.9-14.52,7.72-29.06,10.95-43.75
		C981.47,779.89,987.65,779.3,993.82,778.64z"/>
	<path fill="#FEF365" stroke="#FEF365" stroke-width="0.0938" d="M924.17,782.11c0.67-3.23,4.6-1.22,6.82-1.41
		c13.96,0.64,27.98,0.45,41.94-0.06c-0.51,6.92-3.29,13.39-4.3,20.23c-4.77,18.68-10.4,37.12-16.2,55.5
		c-2.35,5.7-3.24,11.85-5.5,17.57c-7,21.07-13.5,42.29-19.28,63.73c-5.71,20.67-9.76,41.89-10.7,63.35
		c-1.09,8.64-0.66,17.35-1.06,26.03c-1,12.3199-1.03,24.73,0.02,37.0499c0.36,21.4601,4.38,42.86,12.13,62.9
		c3.17,9.62,9.76,17.61,13.4901,26.95c-3.6801,4.1801-7.91,7.8601-11.1801,12.41c-5.22,6.78-12.4,11.61-18.05,17.99
		c-3.07,2.5801-5.68,5.66-8.65,8.35c-6.76,4.88-10.87,12.39-17.1,17.8301c-2.61,2.86-6.2,4.59-8.73,7.53
		c7.47-0.4401,13.79-5.6101,21.29-5.8401c-3.7,2.36-8.09,3.2001-12.1,4.89c-4.15,1.29-8.16,3.3101-12.57,3.5
		c-0.1,1.73,0.13,3.4401,0.81,5.0701c4.48,15.61,8.94,31.22,13.52,46.7999c-12.13,0.85-23.76-3.84-35.8-4.13
		c1.4901-0.53,2.97-1.09,4.46-1.66c-0.7-1.5099-1.67-2.99-1.74-4.6699c-0.44-9,0.54-18.0701-0.82-27.01
		c-0.49-4.48-0.08-9-0.27-13.48c-1.81,0.1-3.61,0.1599-5.4,0.21c-3.25,4.51-7.9,7.8101-10.81,12.58
		c-2.18,3.2001-3.48,7.03-6.4,9.7101c0.55-2.78,2.06-5.1901,3.32-7.67c2.88-5.4399,5.42-11.0599,8.43-16.4299
		c0.49-1.1901,1.54-2.9501,0.43-4.04c-29.6-25.4301-53.82-56.48-74.95-89.14c-9.74-16.25-19.23-32.7-26.98-50.01
		c-8.96-19.05-16.98-38.62-23.02-58.8c-3.72-11.18-6.2599-22.7-9.55-33.99c-0.8-3.3-1.6-6.63-1.7-10.03
		c-0.03-0.44-0.09-1.32-0.12-1.77c0.55,0.15,1.65,0.45,2.2,0.6c18.95-10.52,38.39-20.15,57.63-30.15
		c32.37-17.38,65.05-34.88,93.4-58.5c16.25-13.44,31.15-28.96,41.51-47.46c1.53-3.65,3.89-6.79,6.8199-9.41
		c2.51-8.03,5.72-15.82,7.94-23.94C919.31,796.13,922.15,789.25,924.17,782.11 M861.89,1228.74c-0.64,5.17,1.04,10.17,1.96,15.2
		c0.8,8.4301,3.4301,16.54,4.59,24.9301c3.96,1.17,8.08,1.87,12.21,2.0601c-0.33-1.8501-0.55-3.7401-1.28-5.4501
		c-3.86-8.1899-7.02-16.6799-10.96-24.83C867.03,1236.29,865.28,1231.95,861.89,1228.74z"/>
	<path fill="#FEF365" stroke="#FEF365" stroke-width="0.0938" d="M835.6,1243.6899c4.26-6.6599,8.57-13.72,15.57-17.83
		c-2,7.61-4.54,15.12-7.96,22.22c-1.5,3.4-2.05,7.14-3.64,10.52c-1.14,2.2001-1.29,4.6801-1.44,7.12
		c-3.87,0.0801-7.58-0.95-11.36-1.5599c-0.7,0.99-1.43,1.96-2.19,2.9099c0-0.4399,0-1.3099,0.01-1.74
		C828.99,1258.51,831.53,1250.6899,835.6,1243.6899z"/>
	<path fill="#FEE354" stroke="#FEE354" stroke-width="0.0938" d="M1074.09,751.63c2.8,5.23,1.14,11.47,3.42,16.84
		c1.03,3.04,0.99,6.33,1.95,9.42c1.36,4.61,0.6901,9.48,1.42,14.19c0.5,5.66,1.75,11.27,1.52,16.98
		c-0.2101,12.22,0.46,24.5-0.59,36.69c-1.66,7.32-1.05,14.91-2.7101,22.23c-0.8199,4.23-1.49,8.5-2.3099,12.75
		c-0.73,3.71-2.1801,7.29-2.29,11.11c-0.16,3.5099,0.14,7.11-1.08,10.48c-1.25,3.31-0.77,7.18-3,10.11
		c-2.5801,3.65-2.17,8.32-3.0801,12.51c-0.62,4.17-3.5499,7.48-4.61,11.51c-0.73,3.73-0.26,7.75-2.1,11.21
		c-2.99,5.3-3.0601,11.65-5.75,17.08c-4.22,4.07-3.5,10.41-6.2,15.33c-3.3601-7.62-7.39-14.96-9.89-22.93
		c-5.02-11.44-8.3301-23.51-12.55-35.24c-3.25-11.34-6.17-22.76-8.83-34.25c-2.3799-8.11-3.1299-16.56-5.06-24.78
		c-1.49-10.99-4-21.84-4.58-32.93c-1.64-15.14-2.97-30.31-3.02-45.55c0.25-2.76,0.48-5.53,0.61-8.3
		c6.67-0.77,13.7,1.17,20.0601-1.57c4.49-1.47,9.46,0.49,13.8999-1.19c0.6001-1.65,0.7101-3.43,1-5.14
		c4.8401-0.46,9.7301,0.06,14.5701-0.44c1.7999-0.08,1.85-2.35,2.67-3.52c4.11-0.47,8.2599-0.44,12.37,0.05
		c1.23-0.0601,2.7799,0.6,3.8099-0.42C1074.09,759.79,1073.89,755.7,1074.09,751.63z"/>
	<path fill="#9FC2B6" stroke="#9FC2B6" stroke-width="0.0938" d="M705.72,771.16c0.26,0.2401,0.79,0.72,1.05,0.96
		c-4.79,20.66-8.77,41.62-9.42,62.87c-1.27,9.29-0.85,18.68-0.96,28.03c0.09,6.2-0.19,12.42,0.34,18.61
		c0.01,0.26,0.04,0.78,0.06,1.05c0.15,11.99,1.91,23.93,1.73,35.92l-1.09,0.54c0.15-4.06,0.24-8.14-0.31-12.17
		c-1.1-8.31-1.52-16.7-1.66-25.08c-0.61-16.29-0.05-32.59,0.02-48.89c-0.11-6.42,2.26-12.59,1.94-19.02
		c-0.26-5.14,2.03-9.93,2.11-15.05C701.53,789.67,703.17,780.31,705.72,771.16z"/>
	<path fill="#F4E554" stroke="#F4E554" stroke-width="0.0938" d="M972.93,780.64c0.78-0.09,1.57-0.16,2.37-0.21
		c-3.23,14.69-7.05,29.23-10.95,43.75c-1.33,5.76-3.75,11.19-5.15,16.93c-3.6,13.44-8.61,26.44-12.27,39.86
		c-3.35,9.26-6.34,18.66-8.94,28.16c-3.8,10.61-6.15,21.66-9.39,32.45c-5.2,20.09-9.28,40.62-9.72,61.44
		c-1.15,19.3-2.51,38.63-1.65,57.98c1.74,23,4.47,46.42,13.93,67.7c3.19,8.2001,7.94,15.64,12.22,23.29
		c-0.64,0.63-1.25,1.29-1.85,1.96c-3.73-9.34-10.32-17.33-13.4901-26.95c-7.75-20.04-11.77-41.4399-12.13-62.9
		c-1.05-12.3199-1.02-24.73-0.02-37.0499c0.4-8.6801-0.03-17.3901,1.06-26.03c0.94-21.46,4.99-42.68,10.7-63.35
		c5.78-21.44,12.28-42.66,19.28-63.73c2.26-5.72,3.15-11.87,5.5-17.57c5.8-18.38,11.43-36.82,16.2-55.5
		C969.64,794.03,972.42,787.56,972.93,780.64z"/>
	<path fill="#F4E554" stroke="#F4E554" stroke-width="0.0938" d="M907.45,826.38c0.18-0.96,0.36-1.92,0.57-2.86
		c0.46,1.22,0.92,2.46,1.39,3.71c-2.93,2.62-5.29,5.76-6.8199,9.41c-10.36,18.5-25.26,34.02-41.51,47.46
		c-28.35,23.62-61.03,41.12-93.4,58.5c-19.24,10-38.68,19.63-57.63,30.15c-0.55-0.15-1.65-0.45-2.2-0.6l-0.06-0.71
		c41.88-22.52,85.26-42.47,124.98-68.8c14.3-10.07,28.81-20.11,40.97-32.77c12.72-12.29,24.35-26.32,31.23-42.76
		C905.78,826.86,906.6,826.61,907.45,826.38z"/>
	<path fill="#5CA4F0" stroke="#5CA4F0" stroke-width="0.0938" d="M695.46,881.89c0.14,8.38,0.56,16.77,1.66,25.08
		c0.55,4.03,0.46,8.11,0.31,12.17c-17.97,9.39-36.31,18.19-55.5,24.85c-0.44,0.15-1.33,0.47-1.78,0.63
		c-1.67,0.56-3.34,1.12-5.02,1.62c-0.82-0.09-2.45-0.25-3.26-0.33c1.74-1.85,3.52-3.66,5.44-5.31c0.38-0.33,1.15-0.99,1.53-1.3199
		c6.47-5.65,12.96-11.28,18.94-17.45c9.28-9.39,18.8199-18.54,27.8199-28.2C688.61,889.48,692.92,886.39,695.46,881.89z"/>
	<path fill="#F0F2AA" stroke="#F0F2AA" stroke-width="0.0938" d="M696.79,882.68c2.14,8.6,1.61,17.57,1.85,26.36
		c0.03,2.81,1.09,5.44,1.94,8.08c-1.62,8.98,1.87,17.9,1.91,26.9c0.09,3.74,1.41,7.29,2.12,10.94c1.28,5.45,1.74,11.06,3.18,16.48
		l0.06,0.71c0.03,0.45,0.09,1.33,0.12,1.77l-0.16-0.21c-0.31-0.4-0.92-1.2-1.23-1.6c-3.87-17.64-7.05-35.48-8.06-53.51
		C698.7,906.61,696.94,894.67,696.79,882.68z"/>
	<path fill="#4E9B59" stroke="#4E9B59" stroke-width="0.0938" d="M640.15,944.62c0.45-0.16,1.34-0.48,1.78-0.63
		c6.73,8.62,13.43,17.26,20.03,25.98c5.02,6.34,9.39,13.19,14.65,19.33c-0.4,0.24-1.2,0.73-1.61,0.98
		C663.47,974.99,652.11,959.57,640.15,944.62z"/>
	<path fill="#4E9B59" stroke="#4E9B59" stroke-width="0.0938" d="M676.15,992.06c0.28-0.15,0.83-0.44,1.11-0.58
		c3.84,3.7,6.27,8.61,9.44,12.88c8.43,12.58,16.3,25.58,22.63,39.36c15.98,36.23,32.41,73.3,36.17,113.17
		c1.89,21.36-0.7,43.1899-8.48,63.23c-14.3,37.55-38.6,69.96-60.82,103.05c-14.68,21.4399-28.27,43.74-38.67,67.61
		c-0.0601-1.11-0.1-2.15-0.1801-3.2101c0.4301-1.0599,0.87-2.09,1.33-3.09c25.11-56.84,70.71-101.89,94.54-159.41
		c8.29-19.1699,11.9901-40.23,10.97-61.08c-1.03-23.01-7.03-45.5-14.78-67.09c-6.61-18.5601-14.64-36.5801-22.6299-54.5801
		C698.38,1024.53,687.43,1008.12,676.15,992.06z"/>
	<path fill="#4E9B59" stroke="#4E9B59" stroke-width="0.0938" d="M633.71,1396.5c0.16,0.37,0.49,1.12,0.65,1.49
		c-0.23,1.08-0.48,2.17-0.73,3.28c-2.49,7.04-4.69,14.2-6.25,21.51c-0.46-0.0901-1.38-0.27-1.83-0.36
		C627.8,1413.64,630.23,1404.87,633.71,1396.5z"/>
	<path fill="#58A1EE" stroke="#58A1EE" stroke-width="0.0938" d="M592.94,992.59c5.72-15.13,10.54-30.59,16.62-45.59
		c0.78,15.88,0.94,31.79,1.67,47.68c1.28,0.37,2.58,0.78,3.89,1.15C607.62,995.55,600.33,993.68,592.94,992.59z"/>
	<path fill="#5698E2" stroke="#5698E2" stroke-width="0.0938" d="M588.01,970.09c6.14-7.28,10.88-15.78,18.02-22.2401
		c1.25,2.12-0.95,3.6-2.1201,5.1c-10.18,10.96-17.65,24.2-22.8799,38.16c-10.03,28.24-8.9,58.9401-4.8101,88.21
		c-0.29,0.4-0.87,1.2101-1.16,1.6101c-4.65-26.75-5.49-54.7401,1.45-81.1901c0.61-3.27,2.72-6.38,1.98-9.79
		c-0.48-2.09,1.11-3.8,1.91-5.57C583.09,979.7,584.85,974.47,588.01,970.09z"/>
	<path fill="#5698E2" stroke="#5698E2" stroke-width="0.0938" d="M575.59,1081.95c0.25-0.22,0.75-0.6699,1-0.8899
		c8.86,53.6699,28.5699,104.61,43.87,156.61c6.22,21.4199,11.92,43.11,14.48,65.3199c1.15,9.88,1.23,19.86,2.17,29.77
		c-0.21,5.5599,0.2,11.11,0.31,16.6799c-0.48,0.89-0.94,1.8-1.4,2.7401c-0.21-12.7401-1.16-25.4401-1.92-38.14
		c-1.24-22.5801-6.61-44.66-12.59-66.39c-12.4-43.73-28.3-86.4401-39.25-130.59c-2.61-11.0601-5.27-22.13-6.83-33.39
		C575.47,1083.24,575.55,1082.38,575.59,1081.95z"/>
	<path fill="#5698E2" stroke="#5698E2" stroke-width="0.0938" d="M636.02,1374.77c0.41,0.9299,0.83,1.86,1.28,2.8099
		c-0.18,3.3201-0.4,6.66,0.05,9.99c0.08,1.0601,0.12,2.1001,0.1801,3.2101c-1.83,7.27-1.83,14.87-3.4901,22.2
		c-3.5099,20.2001-10.68,39.89-21.94,57.09c-8.98,13.65-20.63,25.27-32.5699,36.3301c-28.8701,26.0399-62.15,46.45-92.64,70.45
		c-21.35,16.8301-41.65,35.62-56.69,58.4601c-0.44,1.0199-1.98,2.45-2.94,0.97c20.58-31.29,49.97-55.3301,80.06-77.03
		c31.89-23.3,65.58-45.13,91.75-75.13c18.02-20.03,28.92-45.72,33.37-72.12c0.6-3.5601,1.47-7.1,1.19-10.73
		c0.25-1.11,0.5-2.2001,0.73-3.28c-0.16-0.37-0.49-1.12-0.65-1.49l-0.11-0.24C636.55,1389.5,635.35,1381.92,636.02,1374.77z"/>
	<path fill="#58A1ED" stroke="#58A1ED" stroke-width="0.0938" d="M620.3,975.88c-1.46-8.59-3.97-17.09-4.13-25.82
		c6.94,15.89,13.82,31.82,20.19,47.94c-0.66,0.17-1.97,0.51-2.63,0.68c-3.27-0.42-6.51-0.93-9.77-1.4
		C623.16,990.08,621.54,983.01,620.3,975.88z"/>
	<path fill="#C25582" stroke="#C25582" stroke-width="0.0938" d="M676.61,989.3c9.8-6.05,19.89-11.63,29.97-17.19
		c0.31,0.4,0.92,1.2,1.23,1.6c-10.29,5.72-20.9,11.0099-30.55,17.77c-0.28,0.14-0.83,0.43-1.11,0.58
		c-15.57,8.87-29.7401,20.04-43.01,32.04c-16.44,14.55-32.74,29.37-47.05,46.05c-3.32,3.51-5.83,7.75-9.5,10.91
		c-0.25,0.22-0.75,0.6699-1,0.8899c-0.04,0.4301-0.1201,1.29-0.16,1.7201c-18.11,23.09-30.01,51.51-31.57,80.99
		c-1.65,9.34-0.62,18.89-0.58,28.3099c-0.28,0.49-0.85,1.49-1.13,1.98c-0.51-10.35-0.91-20.85,0.17-31.1399
		c0.83-2.0701,0.9-4.3,0.58-6.4701c2.22-28.0299,15.0699-54.4199,32.16-76.4099c0.29-0.4,0.87-1.2101,1.16-1.6101
		c17.72-23.13,39.64-42.5399,61.44-61.6899c11.4901-10.36,24.22-19.21,37.34-27.35C675.41,990.03,676.21,989.54,676.61,989.3z"/>
	<path fill="#FCF03C" stroke="#FCF03C" stroke-width="0.0938" d="M1049.37,981.68c1.3199,3.67-2.02,7.18-0.7,10.84
		c1.48-1.73,3.0199-3.44,4.9099-4.73c0.26,2.67,0.51,5.41,1.67,7.9c1.86,4.24,3.25,9.02,6.9301,12.11
		c3.1899,2.45,2.9199,6.92,4.7899,10.16c1.0601,0.99,2.28,1.8,3.37,2.8c1.3401,2.41,1.13,5.5699,3.1801,7.64
		c2.46,2.5599,3.5,6.02,5.16,9.09c1.24,2.41,4.9199,2.27,5.83,5c1.8099,3.73,2.92,8.16,6.7,10.48
		c-0.1799,0.29-0.5399,0.86-0.72,1.15c-16.17,24.99-35.2,48.09-56.41,68.98c-20.58,21.04-44.14,38.97-68.7,55.1
		c-0.28,0.0901-0.85,0.27-1.13,0.3601c0.21,0.25,0.62,0.75,0.83,1c-1.58-0.2401-2.98,0.2799-4.2,1.24
		c-19.29,12.3199-39.9,22.38-60.9,31.37l-0.87,0.0499c-7.5,0.23-13.82,5.4-21.29,5.8401c2.53-2.9401,6.12-4.67,8.73-7.53
		c6.23-5.4401,10.34-12.9501,17.1-17.8301c2.97-2.6899,5.58-5.7699,8.65-8.35c5.65-6.38,12.83-11.21,18.05-17.99
		c3.27-4.5499,7.5-8.23,11.1801-12.41c0.6-0.6699,1.21-1.33,1.85-1.96c5.93-5.34,10.03-12.25,15.48-18.02
		c3.28-4.4199,7.21-8.33,10.12-13.02c2.73-3,5.53-5.96,7.54-9.5299c4.4-7.0601,9.7-13.49,14.37-20.37
		c3.24-5.42,6.73-10.6801,10.36-15.8501c5.72-9.0399,10.9-18.4099,16.3-27.6399c2.7-3.54,3.92-7.89,6.33-11.6001
		c3.11-4.83,4.75-10.3999,7.79-15.2599c4.46-7.78,7.36-16.27,11.64-24.12C1045.48,991.68,1047.14,986.56,1049.37,981.68z"/>
	<path fill="#FE1818" stroke="#FE1818" stroke-width="0.0938" d="M1150.8101,1160.87c3.84-10.99,7.6-22.02,11.74-32.9
		c0.71,8.3201,0.9099,16.6801,0.9199,25.04c-0.0599,7.67,1.23,15.3199,0.67,23c-0.53,0.15-1.6,0.4399-2.13,0.59
		c-5.14-0.76-10.21-1.99-15.37-2.5599C1147.48,1169.48,1149.34,1165.23,1150.8101,1160.87z"/>
	<path fill="#FC1718" stroke="#FC1718" stroke-width="0.0938" d="M1168.25,1129.01c7.52,16.79,14.4,33.87,21.8101,50.71
		c1.2899,0.39,2.62,0.8301,3.97,1.2101c-5.8101-0.79-11.62-1.54-17.4-2.4701v-0.1c0.23-6.24-1.8199-12.24-2.72-18.34
		C1172.1899,1149.65,1169.67,1139.42,1168.25,1129.01z"/>
	<path fill="#FC1718" stroke="#FC1718" stroke-width="0.0938" d="M1188.29,1509.52c2.08,5.9399,0.1699,12.37,0.61,18.53
		C1188.76,1521.86,1188.25,1515.6899,1188.29,1509.52z"/>
	<path fill="#EA2020" stroke="#EA2020" stroke-width="0.0938" d="M1142.51,1149.85c5.02-7.3199,10.0699-14.84,16.8099-20.71
		c0.8601,1.53,0.03,3-1.09,4.0699c-10.75,11.1001-18.52,24.8-24.01,39.17c-0.23,0.65-0.6699,1.95-0.89,2.6
		c-0.2899-0.53-0.87-1.6-1.1599-2.14c-0.6001-1.0699-1.3301-2.24-0.5901-3.4299c3.13-6.7201,7.1001-13.1,9.7201-20.03l0.4299-0.01
		C1141.92,1149.49,1142.3199,1149.73,1142.51,1149.85z"/>
	<path fill="#F686B5" stroke="#F686B5" stroke-width="0.0938" d="M542.32,1163.8101c-0.98-1.7301-1.34-5.6001,0.58-6.4701
		C543.22,1159.51,543.15,1161.74,542.32,1163.8101z"/>
	<path fill="#F480B2" stroke="#F480B2" stroke-width="0.0938" d="M543.28,1192.97c-0.04-9.4199-1.07-18.97,0.58-28.3099
		c0.59,5.4299-0.36,10.88-0.11,16.33c-0.06,4.3101,0.77,8.73,0.12,12.99l-0.97,1.1801c-0.21,2.37-0.1801,4.76-0.2,7.1699
		c-0.45-2.4099-1.34-4.99-0.55-7.38C542.43,1194.46,543,1193.46,543.28,1192.97z"/>
	<path fill="#A92423" stroke="#A92423" stroke-width="0.0938" d="M1132.17,1172.84c0.2899,0.54,0.87,1.61,1.1599,2.14
		c-8.1599,24.5701-8.24,51.02-5.11,76.48c5.1801,40.8101,17.89,80.12,30.28,119.1901c7.53,23.63,15.27,47.23,21.42,71.28
		c4.59,18,8.1899,36.34,9.2,54.9199c-0.27,4.1901-0.14,8.41,0.6801,12.54c1.34,21.84,2.37,43.88-0.1801,65.66
		c-0.72,1.7799-0.9301,3.72-0.6,5.6499c-1.92,20.54-7.5601,40.9501-17.12,59.3101c-8.12,15.7-19.84,29.16-32.48,41.38
		c-27.74,26.52-60.3401,47.08-90.86,70.12c-24.29,18.4299-47.6901,38.86-64.78,64.36c-0.89,1.0601-1.5,2.89-3.28,2.58
		c2-5.21,6.05-9.34,9.23-13.86c24.2-31.25,56.86-54.22,88.6901-77.01c19.33-13.8099,38.6-27.84,56.0499-44
		c12.8-12.09,25.12-25.0599,33.74-40.5499c11.25-19.6,16.9401-41.9,19.4501-64.23c1.5699-16.8601,2.26-33.8401,1.24-50.75
		c-0.4401-6.16,1.47-12.5901-0.61-18.53c-1.1901-11.48-1.3-23.16-3.29-34.5701c-3.1-20.2799-8.58-40.1-14.39-59.73
		c-13.92-46.5699-31.03-92.33-40.4-140.14C1123.8,1241.48,1120.8,1205.73,1132.17,1172.84z"/>
	<path fill="#A92423" stroke="#A92423" stroke-width="0.0938" d="M964.25,1178.5601c0.28-0.0901,0.85-0.27,1.13-0.3601
		c26.15,25.49,56.9,45.5901,86.25,67.16c24.14,17.8101,47.65,37.13,65.9,61.15c2.8099,4.05,6.23,7.78,8.2899,12.3099
		c-2.34-0.2-2.9199-2.84-4.24-4.34c-22.37-32.49-54.4299-56.37-86.13-79.09c-24.28-17.5-49.16-34.59-70.3699-55.83
		C964.87,1179.3101,964.46,1178.8101,964.25,1178.5601z"/>
	<path fill="#A92423" stroke="#A92423" stroke-width="0.0938" d="M560.09,1360.5601c0.46,3.1899,0.69,6.4099,0.72,9.6499
		c-0.45,7.62-1.58,15.24-3.38,22.67c-1.64-0.38-0.79-2.24-0.68-3.36C558.81,1380,559.77,1370.28,560.09,1360.5601z"/>
	<path fill="#C65B88" stroke="#C65B88" stroke-width="0.0938" d="M542.9,1195.16l0.97-1.1801c2.5,44.3301,14.21,87.54,17.32,131.78
		c-0.26,2.88-0.02,5.78,0.62,8.61c0.53,8.52,0.52,17.12,0.06,25.66l-0.98-1.22c-0.46-7.03,0.82-14.15-0.74-21.1101
		c-1.89-45.58-14.09-89.96-17.45-135.37C542.72,1199.92,542.69,1197.53,542.9,1195.16z"/>
	<path fill="#FBF037" stroke="#FBF037" stroke-width="0.0938" d="M849.2,1221.74c1.79-0.05,3.59-0.11,5.4-0.21
		c0.19,4.48-0.22,9,0.27,13.48c1.36,8.9399,0.38,18.01,0.82,27.01c0.07,1.6799,1.04,3.16,1.74,4.6699
		c-1.49,0.5701-2.97,1.13-4.46,1.66c-4.95-0.9-9.8799-1.83-14.84-2.63c0.15-2.4399,0.3-4.9199,1.44-7.12
		c1.59-3.38,2.14-7.12,3.64-10.52c3.42-7.1,5.96-14.61,7.96-22.22c-7,4.11-11.31,11.17-15.57,17.83
		c-4.0699,7-6.61,14.8201-11.0099,21.64c-1.77-6.2699,4.18-10.76,4.99-16.61c0.28-1.7999,1-3.51,2.41-4.6899
		c2.92-2.6801,4.22-6.51,6.4-9.7101C841.3,1229.55,845.95,1226.25,849.2,1221.74z"/>
	<path fill="#FAF037" stroke="#FAF037" stroke-width="0.0938" d="M861.89,1228.74c3.39,3.21,5.14,7.55,6.52,11.91
		c3.94,8.15,7.1,16.64,10.96,24.83c0.73,1.71,0.95,3.6,1.28,5.4501c-4.13-0.1901-8.25-0.89-12.21-2.0601
		c-1.16-8.39-3.79-16.5-4.59-24.9301C862.93,1238.91,861.25,1233.91,861.89,1228.74z"/>
	<path fill="#EAE470" stroke="#EAE470" stroke-width="0.0938" d="M825.55,1255.4301c1.31-2.26,1.88-5.0601,4.03-6.7101
		c-0.81,5.85-6.76,10.3401-4.99,16.61c-0.01,0.4301-0.01,1.3-0.01,1.74c-1.05,7.03-4.05,13.75-4.45,20.9301
		c-0.27,4.02-1.75,7.88-1.7,11.9399c-0.22,10.67-0.32,21.3601,0.08,32.03c1.08,5.6,1.73,11.28,2.02,16.99
		c0.96,3.9501,1.7,7.9601,1.96,12.04c3.56,16.08,6.83,32.21,11.6,47.99c10.65,38.8,24.49,76.6801,35.25,115.45
		c3.77,15.1101,7.9,30.1001,9.6,45.6101c2.3,7.8199,0.57,16.08,2.39,23.97c1.45,21.96,1.38,44.02,0.92,66.04
		c-0.35,4.35-0.64,8.74-1.65,13.0199c-0.35,3.99-0.22,8.0801-1.61,11.92c-2.26,15.3199-7.12,30.27-13.93,44.22
		c-9.15,19.02-23.72,34.64-38.99,48.9301c-27.92,25.61-60.23,45.71-90.19,68.75c-20.57,15.91-40.27,33.34-55.69,54.4199
		c-2.49,3.13-4.57,6.6001-7.37,9.4901c-1.52-2.04,0.39-4.03,1.45-5.7101c21.1-30.52,50.51-53.9399,80.43-75.33
		c32.09-23.4301,65.91-45.59,91.62-76.36c17.45-20.67,27.16-46.92,31.28-73.35c0.03-4.77,1.28-9.3701,1.9301-14.04
		c0.16-14.98,1.72-29.98,0.27-44.9401c-0.16-6.9299,0.01-13.86-0.3-20.7699c-1.29-8.3701-1.66-16.8501-1.99-25.29
		c-0.77-4.02-1.9-8-1.89-12.13c-6.36-34.4501-17.63-67.86-28.18-101.28c-10.86-33.72-21.38-67.71-27.66-102.5599
		c-0.0601-5.12-2.22-9.9401-2.1201-15.0701c0.22-3.84-1.0099-7.5-1.34-11.27c-1.03-7.1899-0.44-14.46-0.59-21.6799
		c-0.35-11.4401,1.59-22.8,3.89-33.9301c0.43-4.61,3.4-8.75,2.9-13.49C822.15,1260.53,824.39,1258.0699,825.55,1255.4301z"/>
	<path fill="#F98FC0" stroke="#F98FC0" stroke-width="0.0938" d="M561.19,1325.76c0.85,2.77,1.24,5.72,0.62,8.61
		C561.17,1331.54,560.93,1328.64,561.19,1325.76z"/>
	<path fill="#B0DBFC" stroke="#B0DBFC" stroke-width="0.0938" d="M637.11,1332.76c0.69,5.22,1.08,10.51,0.75,15.8l-0.44,0.8799
		C637.31,1343.87,636.9,1338.3199,637.11,1332.76z"/>
	<path fill="#EE75A9" stroke="#EE75A9" stroke-width="0.0938" d="M560.15,1337.7c1.56,6.9601,0.28,14.0801,0.74,21.1101l0.98,1.22
		c0.31,3.26,0.35,7.09-1.06,10.1799c-0.03-3.24-0.26-6.46-0.72-9.6499C559.92,1352.95,559.99,1345.3101,560.15,1337.7z"/>
	<path fill="#75A9DC" stroke="#75A9DC" stroke-width="0.0938" d="M637.42,1349.4399l0.44-0.8799c0.21,9.96,0.56,19.97-0.16,29.9299
		l-0.4-0.91c-0.45-0.95-0.87-1.88-1.28-2.8099c-0.04-7.52-0.12-15.0701,0-22.59C636.48,1351.24,636.94,1350.33,637.42,1349.4399z"/>
	<path fill="#9DD8F2" stroke="#9DD8F2" stroke-width="0.0938" d="M637.3,1377.58l0.4,0.91c0.32,1.98,0.63,3.98,0.98,5.99
		c-0.46,1-0.9,2.03-1.33,3.09C636.9,1384.24,637.12,1380.9,637.3,1377.58z"/>
	<path fill="#FB8D8A" stroke="#FB8D8A" stroke-width="0.0938" d="M1189.12,1496.85c0.83,4.1,1.54,8.37,0.6801,12.54
		C1188.98,1505.26,1188.85,1501.04,1189.12,1496.85z"/>
	<path fill="#FC8687" stroke="#FC8687" stroke-width="0.0938" d="M1189.02,1580.7c-0.3301-1.9299-0.12-3.87,0.6-5.6499
		C1190.67,1576.47,1190.89,1580.08,1189.02,1580.7z"/>
</g>
</svg>
