<svg xmlns="http://www.w3.org/2000/svg" viewBox="0 0 64 64"><defs><style>.cls-1{fill:#45d821;stroke:#45d821;}.cls-1,.cls-2,.cls-3,.cls-4,.cls-5,.cls-6{stroke-linecap:round;stroke-linejoin:round;stroke-width:2px;}.cls-2,.cls-6{fill:none;}.cls-2{stroke:#3eb51d;}.cls-3{fill:#f98af9;stroke:#f98af9;}.cls-4,.cls-7{fill:#f57e17;}.cls-4{stroke:#f57e17;}.cls-5{fill:#faf500;stroke:#faf500;}.cls-6{stroke:#54596e;}.cls-8{fill:#54596e;}</style></defs><title>flower</title><g id="flower"><path class="cls-1" d="M49.55,45A7.3,7.3,0,0,0,36.4,47.22,7.3,7.3,0,0,0,49.55,45Z"/><path class="cls-2" d="M32,32.58S40,41,36,47s-6,9-1,15"/><ellipse class="cls-3" cx="29" cy="22" rx="5" ry="21"/><ellipse class="cls-3" cx="29" cy="22" rx="21" ry="5"/><ellipse class="cls-4" cx="29" cy="22" rx="5" ry="21" transform="translate(-7.06 26.95) rotate(-45)"/><ellipse class="cls-4" cx="29" cy="22" rx="21" ry="5" transform="translate(-7.06 26.95) rotate(-45)"/><circle class="cls-5" cx="29" cy="22" r="11"/><path class="cls-6" d="M25,26.28a5.5,5.5,0,0,0,4,1.51,5.52,5.52,0,0,0,4-1.49"/><circle class="cls-7" cx="23" cy="22" r="2"/><circle class="cls-7" cx="35" cy="22" r="2"/><circle class="cls-8" cx="33.5" cy="18.5" r="1.5"/><circle class="cls-8" cx="24.5" cy="18.5" r="1.5"/><path class="cls-1" d="M20.5,46.84a7.31,7.31,0,0,0,12.12,5.59A7.31,7.31,0,0,0,20.5,46.84Z"/><path class="cls-6" d="M25,26.28a5.5,5.5,0,0,0,4,1.51,5.52,5.52,0,0,0,4-1.49"/><circle class="cls-8" cx="33.5" cy="18.5" r="1.5"/><circle class="cls-8" cx="24.5" cy="18.5" r="1.5"/></g></svg>