<?xml version="1.0"?><svg viewBox="0 0 64 64" xmlns="http://www.w3.org/2000/svg"><defs><style>.cls-1{fill:#e7ecf0;}.cls-2{fill:#bc96e3;}.cls-3{fill:#f6e782;}</style></defs><g id="Jellyfish"><path class="cls-1" d="M24.57,31.18l-1.39,1.53a20.79,20.79,0,0,0,.17,2.16A12.63,12.63,0,0,1,23,41a11.78,11.78,0,0,0,.15,7.82c.35,1,.76,1.91,1.06,2.6a10.23,10.23,0,0,1,.47,1.28,1.57,1.57,0,1,0,3.13-.24,6.58,6.58,0,0,0-.71-2.3c-.33-.74-.69-1.53-1-2.37A8.35,8.35,0,0,1,26,42a15.84,15.84,0,0,0,.46-7.51,15.65,15.65,0,0,1-.16-2.07Zm21.54.15-1.54,1.49a17,17,0,0,1-.29,2,20.92,20.92,0,0,0-.67,5.46A52.44,52.44,0,0,0,45,47.72,1.57,1.57,0,1,0,48,47a61.06,61.06,0,0,1-1.25-6.91,19.09,19.09,0,0,1,.62-4.68,20.19,20.19,0,0,0,.36-3.08Zm-6.26.12a18.39,18.39,0,0,0-2,1c0,.78.1,1.75.11,2.25a7.56,7.56,0,0,1-.53,3.35,7.69,7.69,0,0,0-.13,4.24,15.33,15.33,0,0,1,.58,2.88c0,1.82-.35,5.86-.35,5.86a1.58,1.58,0,0,0,3.14.27s.35-3.95.36-6.12a14.24,14.24,0,0,0-.66-3.57,4.48,4.48,0,0,1,.18-2.94,10.24,10.24,0,0,0,.56-4.08c0-.58-.06-1.18-.1-1.85A8.43,8.43,0,0,0,39.85,31.45Zm-7.47.06-2.28.67a24.77,24.77,0,0,0,.41,4.11,10.94,10.94,0,0,1,0,4.51c-.87,4.5-.7,7.2.7,9.71a4.4,4.4,0,0,1,0,3.27,1.57,1.57,0,1,0,2.87,1.29A7.06,7.06,0,0,0,34,49c-1-1.86-1.18-3.34-.36-7.59a14.6,14.6,0,0,0,0-5.6,23,23,0,0,1-.37-3.63Zm-12.44.21-2.87.8c-.17.42-.39.83-.63,1.3a9.45,9.45,0,0,0-1.5,5.44,26.84,26.84,0,0,0,1,4.89A4.18,4.18,0,0,1,16,46.71a1.58,1.58,0,0,0,3,1.08,7.24,7.24,0,0,0,0-4.4A25.09,25.09,0,0,1,18.08,39c-.11-1.41.41-2.33,1.15-3.73a13.46,13.46,0,0,0,1-2.45Z" id="path316314-7"/><path class="cls-2" d="M17.38,17.57A15.83,15.83,0,0,0,16,24a13.68,13.68,0,0,0,.24,2.72l.06,3.1,31.09.09.29-3.19A13.68,13.68,0,0,0,48,24a16.74,16.74,0,0,0-.29-3l-7.05-10.4a16,16,0,0,0-16.83-.26Z" id="path303964-4"/><path class="cls-3" d="M30.1,18.84a2.39,2.39,0,1,0,2.39,2.39A2.4,2.4,0,0,0,30.1,18.84Z" id="path308776-0"/><path class="cls-3" d="M23.79,10.27a16,16,0,0,0-6.41,7.3,4.88,4.88,0,0,0,6.41-7.3Zm16.83.26a6.32,6.32,0,0,0,7.05,10.4A16,16,0,0,0,40.62,10.53Z" id="path308894-9"/><path class="cls-3" d="M13.38,27.07a2.45,2.45,0,0,0,0,3.46c2.29,2.31,5.47,2.42,8.58,2.26s6.52-.66,10.06-.66,7,.5,10.06.66,6.29.05,8.58-2.26a2.44,2.44,0,1,0-3.47-3.44c-.62.63-2.13,1-4.87.83S36,27.25,32,27.25s-7.57.53-10.3.67-4.25-.2-4.87-.83A2.44,2.44,0,0,0,13.38,27.07Z" id="path316920-9"/></g></svg>