<svg width="507" height="483" xmlns="http://www.w3.org/2000/svg" xmlns:xlink="http://www.w3.org/1999/xlink">
 <defs>
  <linearGradient id="imagebot_47">
   <stop stop-color="rgb(0, 0, 0)" id="imagebot_59" offset="0"/>
   <stop stop-color="rgb(0, 0, 0)" id="imagebot_58" offset="1"/>
  </linearGradient>
  <radialGradient gradientTransform="matrix(1 0 0 1 75.5275 18.0396)" gradientUnits="userSpaceOnUse" r="38.55332" fy="345.81219" fx="225.49467" cy="345.81219" cx="225.49467" id="imagebot_42" xlink:href="#imagebot_47"/>
 </defs>
 <g label="Layer 1" id="imagebot_2">
  <path transform="translate(41.194 0.0169983) matrix(1 0 0 1 -103.1 -229.5)" label="Layer 1" stroke="#000000" stroke-width="0.86031px" fill="#440055" d="M360.78,405.08S365.8481,447.277 405.574,522.4C439.236,586.058 504.775,572.554 502.805,515.7582C569.37,613.1782 434.189,642.0082 346.305,547.6572C340.1438,607.9472 377.448,586.8862 356.0588,593.8492C334.6698,600.8117 308.5868,620.7412 310.8398,589.783C313.0927,558.825 297.3718,524.375 297.3718,524.375C323.2918,680.865 91.8118,616.992 152.6518,547.189C161.2445,613.497 225.0098,580.196 241.1218,535.621C256.8908,486.967 275.4148,455.701 264.6588,406.471L360.7768,405.0756L360.78,405.08z" id="imagebot_35"/>
  <path transform="translate(41.194 0.0169983) matrix(1 0 0 1 -103.1 -229.5)" label="Layer 1" fill="#660080" d="M249.29,389.51S314.546,499.24 262.401,549.47C211.315,598.68 179.244,603.899 175.867,531.114C104.192,591.789 158.635,660.964 230.934,641.244C337.924,583.361 305.069,525.264 338.444,520.624C371.821,515.9835 358.494,610.612 411.867,628.134C471.8,647.812 517.227,600.585 480.045,541.6C480.045,541.6 480.045,580.934 453.823,580.934C369.057,534.797 386.438,481.043 401.378,397.374L249.288,389.5073L249.29,389.51z" id="imagebot_34"/>
  <path transform="translate(41.194 0.0169983) matrix(1 0 0 1 -103.1 -229.5)" label="Layer 1" fill-opacity="0.99608" fill="#8800aa" d="M325.72,229.5C270.492,229.5 225.72,281.96 225.72,346.66C225.72,378.563 236.592,407.472 254.251,428.598C263.5693,477.369 268.476,545.128 234.282,578.068C178.619,631.687 143.68,637.373 140.001,558.068C61.906,624.178 121.225,699.548 200.001,678.068C281.882,655.742 302.061,533.908 302.841,546.658C305.8401,595.513 262.859,669.498 285.716,683.778C308.573,698.064 336.281,712.424 334.278,672.372C331.4209,615.229 348.559,535.212 348.559,535.212S361.842,664.682 419.997,683.772C485.299,705.213 543.357,665.197 502.841,600.928C502.841,600.928 502.85,643.772 474.279,643.772C396.624,601.505 389.569,508.952 398.967,426.362C415.561,405.451 425.717,377.445 425.717,346.643C425.717,281.947 380.945,229.483 325.717,229.483L325.72,229.5z" id="imagebot_33"/>
  <path transform="translate(41.194 0.0169983) matrix(1 0 0 1 -103.1 -229.5)" label="Layer 1" fill="#d42aff" d="M505.57,608.02S509.2442,644.249 495.559,656.375S433.919,684.328 404.733,643.084S351.224,546.619 351.224,546.619S357.7168,623.822 387.82,662.299C400.864,678.97 437.962,702.08 479.89,686.582C542.969,663.267 508.615,609.612 505.57,608.022L505.57,608.02z" id="imagebot_32"/>
  <path transform="translate(41.194 0.0169983) matrix(1 0 0 1 -103.1 -229.5)" label="Layer 1" fill="#d42aff" d="M135.21,562.02S115.715,608.073 122.858,626.645C130.0009,645.216 167.144,680.931 212.858,646.645S294.287,565.216 294.287,565.216S276.374,633.76 231.068,664.647C211.438,678.03 159.083,694.886 123.628,665.88C71.445,623.2 135.208,560.59 135.208,562.02L135.21,562.02z" id="imagebot_31"/>
  <path transform="translate(41.194 0.0169983) matrix(1 0 0 1 -103.1 -229.5)" label="Layer 1" fill="#d42aff" d="M279.05,662.06C279.05,680.748 286.2473,688.955 303.925,694.511C321.603,700.0668 332.083,697.6677 333.598,684.031C335.1132,670.394 329.725,621.983 327.4108,603.598C325.138,585.542 317.8144,575.314 317.8144,575.314C309.1801,585.1231 310.8681,583.4123 304.8534,601.625C299.7489,617.083 282.5884,645.836 279.0494,662.061L279.05,662.06z" id="imagebot_30"/>
  <path transform="translate(41.194 0.0169983) matrix(1 0 0 1 -103.1 -229.5)" label="Layer 1" stroke="#8800aa" fill="#eeaaff" d="M 190.91599990844728 675.0710003662109 C 190.91599990844728 680.092000366211 182.32299990844726 684.1624003662109 171.72299990844726 684.1624003662109 S 152.52999990844728 680.092100366211 152.52999990844728 675.0710003662109 C 152.52999990844728 670.050000366211 161.12299990844727 665.9796003662109 171.72299990844726 665.9796003662109 S 190.91599990844728 670.050000366211 190.91599990844728 675.0710003662109 z" id="imagebot_23"/>
  <path label="Layer 1" stroke="#8800aa" fill="#eeaaff" transform="translate(41.194 0.0169983) matrix(0.94183 -0.3361 0.3361 0.94183 -275.58 -244.751)" d="M151.52,770.53C151.52,775.551 142.927,779.6214 132.327,779.6214S113.134,775.5511 113.134,770.53C113.134,765.509 121.727,761.4386 132.327,761.4386S151.52,765.509 151.52,770.53z" id="imagebot_22"/>
  <path label="Layer 1" stroke="#8800aa" fill="#eeaaff" transform="translate(41.194 0.0169983) matrix(0.76446 -0.64467 0.64467 0.76446 -456.03 -87.96)" d="M151.52,770.53C151.52,775.551 142.927,779.6214 132.327,779.6214S113.134,775.5511 113.134,770.53C113.134,765.509 121.727,761.4386 132.327,761.4386S151.52,765.509 151.52,770.53z" id="imagebot_21"/>
  <path label="Layer 1" stroke="#8800aa" fill="#eeaaff" transform="translate(41.194 0.0169983) matrix(0.84839 0.52937 -0.52937 0.84839 325.36 -290.313)" d="M151.52,770.53C151.52,775.551 142.927,779.6214 132.327,779.6214S113.134,775.5511 113.134,770.53C113.134,765.509 121.727,761.4386 132.327,761.4386S151.52,765.509 151.52,770.53z" id="imagebot_20"/>
  <path label="Layer 1" stroke="#8800aa" fill="#eeaaff" transform="translate(41.194 0.0169983) matrix(0.55566 -0.83141 0.83141 0.55566 -548.56 64.81)" d="M151.52,770.53C151.52,775.551 142.927,779.6214 132.327,779.6214S113.134,775.5511 113.134,770.53C113.134,765.509 121.727,761.4386 132.327,761.4386S151.52,765.509 151.52,770.53z" id="imagebot_19"/>
  <path label="Layer 1" stroke="#8800aa" fill="#eeaaff" transform="translate(41.194 0.0169983) matrix(0.23154 0.73882 -0.73882 0.23154 548.18 129.24)" d="M151.52,770.53C151.52,775.551 142.927,779.6214 132.327,779.6214S113.134,775.5511 113.134,770.53C113.134,765.509 121.727,761.4386 132.327,761.4386S151.52,765.509 151.52,770.53z" id="imagebot_18"/>
  <path label="Layer 1" stroke="#8800aa" fill="#eeaaff" transform="translate(41.194 0.0169983) matrix(-0.17332 0.75461 -0.75461 -0.17332 616.44 406.27)" d="M151.52,770.53C151.52,775.551 142.927,779.6214 132.327,779.6214S113.134,775.5511 113.134,770.53C113.134,765.509 121.727,761.4386 132.327,761.4386S151.52,765.509 151.52,770.53z" id="imagebot_17"/>
  <path label="Layer 1" stroke="#8800aa" fill="#eeaaff" transform="translate(41.194 0.0169983) matrix(-0.96934 -0.2457 -0.2457 0.96934 650.75 -260.435)" d="M151.52,770.53C151.52,775.551 142.927,779.6214 132.327,779.6214S113.134,775.5511 113.134,770.53C113.134,765.509 121.727,761.4386 132.327,761.4386S151.52,765.509 151.52,770.53z" id="imagebot_16"/>
  <path label="Layer 1" stroke="#8800aa" fill="#eeaaff" transform="translate(41.194 0.0169983) matrix(-0.68186 -0.73148 -0.73148 0.68186 952.7 5.52)" d="M151.52,770.53C151.52,775.551 142.927,779.6214 132.327,779.6214S113.134,775.5511 113.134,770.53C113.134,765.509 121.727,761.4386 132.327,761.4386S151.52,765.509 151.52,770.53z" id="imagebot_15"/>
  <path label="Layer 1" stroke="#8800aa" fill="#eeaaff" transform="translate(41.194 0.0169983) matrix(-0.38463 -0.92307 -0.92307 0.38463 1036.7 226.31)" d="M151.52,770.53C151.52,775.551 142.927,779.6214 132.327,779.6214S113.134,775.5511 113.134,770.53C113.134,765.509 121.727,761.4386 132.327,761.4386S151.52,765.509 151.52,770.53z" id="imagebot_14"/>
  <path label="Layer 1" stroke="#8800aa" fill="#eeaaff" transform="translate(41.194 0.0169983) matrix(-0.97413 0.22599 0.22599 0.97413 328.15 -327.431)" d="M151.52,770.53C151.52,775.551 142.927,779.6214 132.327,779.6214S113.134,775.5511 113.134,770.53C113.134,765.509 121.727,761.4386 132.327,761.4386S151.52,765.509 151.52,770.53z" id="imagebot_13"/>
  <path label="Layer 1" stroke="#8800aa" fill="#eeaaff" transform="translate(41.194 0.0169983) matrix(-0.25635 -0.96658 -0.96658 0.25635 1041.4 292.16)" d="M151.52,770.53C151.52,775.551 142.927,779.6214 132.327,779.6214S113.134,775.5511 113.134,770.53C113.134,765.509 121.727,761.4386 132.327,761.4386S151.52,765.509 151.52,770.53z" id="imagebot_12"/>
  <path label="Layer 1" stroke="#8800aa" fill="#eeaaff" transform="translate(41.194 0.0169983) matrix(-0.4584 0.62397 0.62397 0.4584 -17.05 -2.17999)" d="M151.52,770.53C151.52,775.551 142.927,779.6214 132.327,779.6214S113.134,775.5511 113.134,770.53C113.134,765.509 121.727,761.4386 132.327,761.4386S151.52,765.509 151.52,770.53z" id="imagebot_11"/>
  <path label="Layer 1" stroke="#8800aa" fill="#eeaaff" transform="translate(41.194 0.0169983) matrix(0.24449 -0.96965 0.96965 0.24449 -584.1 380.95)" d="M151.52,770.53C151.52,775.551 142.927,779.6214 132.327,779.6214S113.134,775.5511 113.134,770.53C113.134,765.509 121.727,761.4386 132.327,761.4386S151.52,765.509 151.52,770.53z" id="imagebot_10"/>
  <path label="Layer 1" stroke="#8800aa" fill="#eeaaff" transform="translate(41.194 0.0169983) matrix(0.11555 -0.9933 0.9933 0.11555 -565.56 490)" d="M151.52,770.53C151.52,775.551 142.927,779.6214 132.327,779.6214S113.134,775.5511 113.134,770.53C113.134,765.509 121.727,761.4386 132.327,761.4386S151.52,765.509 151.52,770.53z" id="imagebot_9"/>
  <path label="Layer 1" stroke="#8800aa" fill="#eeaaff" transform="translate(41.194 0.0169983) matrix(0.073987 0.77071 -0.77071 0.073987 800.68 248.44)" d="M151.52,770.53C151.52,775.551 142.927,779.6214 132.327,779.6214S113.134,775.5511 113.134,770.53C113.134,765.509 121.727,761.4386 132.327,761.4386S151.52,765.509 151.52,770.53z" id="imagebot_8"/>
  <path label="Layer 1" stroke="#8800aa" fill="#eeaaff" transform="translate(41.194 0.0169983) matrix(-0.21339 0.74427 -0.74427 -0.21339 803.18 471.35)" d="M151.52,770.53C151.52,775.551 142.927,779.6214 132.327,779.6214S113.134,775.5511 113.134,770.53C113.134,765.509 121.727,761.4386 132.327,761.4386S151.52,765.509 151.52,770.53z" id="imagebot_7"/>
  <path label="Layer 1" stroke="#8800aa" fill="#eeaaff" transform="translate(41.194 0.0169983) matrix(-0.0096764 0.5168 -0.5168 -0.0096764 616.61 319.23)" d="M151.52,770.53C151.52,775.551 142.927,779.6214 132.327,779.6214S113.134,775.5511 113.134,770.53C113.134,765.509 121.727,761.4386 132.327,761.4386S151.52,765.509 151.52,770.53z" id="imagebot_6"/>
  <path label="Layer 1" stroke="#8800aa" fill="#eeaaff" transform="translate(41.194 0.0169983) matrix(-0.14787 0.51575 -0.51575 -0.14787 623.48 424.34)" d="M151.52,770.53C151.52,775.551 142.927,779.6214 132.327,779.6214S113.134,775.5511 113.134,770.53C113.134,765.509 121.727,761.4386 132.327,761.4386S151.52,765.509 151.52,770.53z" id="imagebot_5"/>
  <path label="Layer 1" stroke="#8800aa" fill="#eeaaff" transform="translate(41.194 0.0169983) matrix(0.034449 0.35884 -0.35884 0.034449 489.36 288.75)" d="M151.52,770.53C151.52,775.551 142.927,779.6214 132.327,779.6214S113.134,775.5511 113.134,770.53C113.134,765.509 121.727,761.4386 132.327,761.4386S151.52,765.509 151.52,770.53z" id="imagebot_4"/>
  <path label="Layer 1" stroke="#8800aa" fill="#eeaaff" transform="translate(41.194 0.0169983) matrix(-0.091711 0.31988 -0.31988 -0.091711 469.56 386.55)" d="M151.52,770.53C151.52,775.551 142.927,779.6214 132.327,779.6214S113.134,775.5511 113.134,770.53C113.134,765.509 121.727,761.4386 132.327,761.4386S151.52,765.509 151.52,770.53z" id="imagebot_3"/>
  <title>Layer 1</title>

  <metadata id="imagebot_46">image/svg+xmllogoabril 2011M Mlogolentesglassesverdeblancogrisnegrologo de un website</metadata>
  <path transform="matrix(0.647453 0 0 0.647453 95.5908 31.1339)" label="Capa 1" fill="rgb(255, 255, 255)" stroke="rgb(0, 0, 0)" stroke-width="5.7" stroke-miterlimit="4" stroke-opacity="0.61497" id="imagebot_43" d="M 240.90349964904783 363.85179037231444 C 240.90349964904783 383.57020037231445 224.91857964904784 399.55512037231443 205.20016964904787 399.55512037231443 C 185.48176964904786 399.55512037231443 169.49684964904785 383.57020037231445 169.49684964904785 363.85179037231444 C 169.49684964904785 344.13339037231447 185.48176964904786 328.1484703723145 205.20016964904787 328.1484703723145 C 224.91857964904784 328.1484703723145 240.90349964904783 344.13339037231447 240.90349964904783 363.85179037231444 z"/>
  <path transform="matrix(0.647453 0 0 0.647453 95.5908 31.1339)" label="Capa 1" fill="rgb(255, 255, 255)" stroke="url(#imagebot_42)" stroke-width="5.7" stroke-miterlimit="4" stroke-opacity="0.61497" d="M 336.7254963378906 363.85179037231444 C 336.7254963378906 383.57020037231445 320.7405763378906 399.55512037231443 301.02216633789067 399.55512037231443 C 281.30376633789064 399.55512037231443 265.3188463378906 383.57020037231445 265.3188463378906 363.85179037231444 C 265.3188463378906 344.13339037231447 281.30376633789064 328.1484703723145 301.02216633789067 328.1484703723145 C 320.7405763378906 328.1484703723145 336.7254963378906 344.13339037231447 336.7254963378906 363.85179037231444 z" id="imagebot_41"/>
  <path label="Capa 1" opacity="0.83857" fill="rgb(0, 0, 0)" transform="matrix(0.656835 0 0 0.656835 81.1321 69.2599)" d="M244.28591,306.53854C244.28591,313.28431 238.48085,318.75284 231.31996,318.75284C224.15907,318.75284 218.35402,313.28431 218.35402,306.53854C218.35402,299.79277 224.15907,294.32425 231.31996,294.32425C238.48085,294.32425 244.28591,299.79277 244.28591,306.53854z" id="imagebot_40"/>
  <path label="Capa 1" opacity="0.83857" fill="rgb(0, 0, 0)" id="imagebot_39" d="M244.28591,306.53854C244.28591,313.28431 238.48085,318.75284 231.31996,318.75284C224.15907,318.75284 218.35402,313.28431 218.35402,306.53854C218.35402,299.79277 224.15907,294.32425 231.31996,294.32425C238.48085,294.32425 244.28591,299.79277 244.28591,306.53854z" transform="matrix(0.656835 0 0 0.656835 143.416 69.2599)"/>
 </g>
 <metadata>image/svg+xmlOpenclipartoctopus2013-01-24T23:52:47A purple octopus, supposedly a female.https://openclipart.org/detail/174448/octopus-by-evilestmark-174448evilestmarkmarine animalmolluskoctopustako</metadata>
</svg>