<?xml version="1.0" encoding="UTF-8" standalone="no"?>
<!-- Created with Inkscape (http://www.inkscape.org/) -->

<svg
   xmlns:dc="http://purl.org/dc/elements/1.1/"
   xmlns:cc="http://creativecommons.org/ns#"
   xmlns:rdf="http://www.w3.org/1999/02/22-rdf-syntax-ns#"
   xmlns:svg="http://www.w3.org/2000/svg"
   xmlns="http://www.w3.org/2000/svg"
   xmlns:sodipodi="http://sodipodi.sourceforge.net/DTD/sodipodi-0.dtd"
   xmlns:inkscape="http://www.inkscape.org/namespaces/inkscape"
   width="300mm"
   height="200mm"
   viewBox="0 0 300 200"
   version="1.1"
   id="svg4533"
   sodipodi:docname="turtle.svg"
   inkscape:version="0.92.0 r15299"
   inkscape:export-filename="C:\Project\Inkspace Images\turtle\turtle.png"
   inkscape:export-xdpi="90"
   inkscape:export-ydpi="90">
  <defs
     id="defs4527" />
  <sodipodi:namedview
     id="base"
     pagecolor="#ffffff"
     bordercolor="#666666"
     borderopacity="1.0"
     inkscape:pageopacity="0.0"
     inkscape:pageshadow="2"
     inkscape:zoom="0.98994949"
     inkscape:cx="366.49698"
     inkscape:cy="439.88406"
     inkscape:document-units="mm"
     inkscape:current-layer="layer1"
     showgrid="false"
     inkscape:window-width="1366"
     inkscape:window-height="705"
     inkscape:window-x="-8"
     inkscape:window-y="-8"
     inkscape:window-maximized="1" />
  <metadata
     id="metadata4530">
    <rdf:RDF>
      <cc:Work
         rdf:about="">
        <dc:format>image/svg+xml</dc:format>
        <dc:type
           rdf:resource="http://purl.org/dc/dcmitype/StillImage" />
        <dc:title />
      </cc:Work>
    </rdf:RDF>
  </metadata>
  <g
     inkscape:label="Layer 1"
     inkscape:groupmode="layer"
     id="layer1"
     transform="translate(0,-97)">
    <path
       style="fill:#808000;stroke:#000000;stroke-width:0.13229166;stroke-miterlimit:4;stroke-dasharray:none;stroke-opacity:1"
       inkscape:transform-center-x="-0.87783072"
       inkscape:transform-center-y="-5.4885269"
       d="m 282.60432,202.85964 -21.64632,1.52045 -15.20905,-5.04089 3.06914,-12.94514 v 0 l 11.26207,5.48853 c 28.16977,10.21501 41.58137,2.78498 22.52416,10.97705 z"
       id="path4514"
       inkscape:connector-curvature="0"
       sodipodi:nodetypes="ccccccc" />
    <path
       style="fill:#808000;fill-opacity:1;stroke:#5aa02c;stroke-width:0.5291667;stroke-miterlimit:4;stroke-dasharray:none;stroke-opacity:1"
       d="m 227.11665,230.22024 c 3.80396,11.33922 1.12227,20.04195 -9.61246,20.8364 -10.24299,0.75806 -19.99368,2.44644 -16.28181,-16.16964 2.01754,-10.11854 2.46195,-19.5477 9.61245,-20.83639 7.1505,-1.2887 12.98263,6.33507 16.28182,16.16963 z"
       id="path5101-08"
       inkscape:connector-curvature="0"
       sodipodi:nodetypes="sssss" />
    <path
       style="fill:#808000;fill-opacity:1;stroke:#5aa02c;stroke-width:0.6289562;stroke-miterlimit:4;stroke-dasharray:none;stroke-opacity:1"
       d="m 144.4962,229.51819 c 1.73244,11.83413 -2.45029,19.92325 -13.15573,18.80112 -10.21505,-1.07073 -20.11061,-1.13855 -13.15572,-18.80112 3.78024,-9.60027 5.89001,-18.80111 13.15572,-18.80111 7.2657,-1e-5 11.65315,8.53731 13.15573,18.80111 z"
       id="path5101-6"
       inkscape:connector-curvature="0"
       sodipodi:nodetypes="sssss" />
    <path
       style="fill:#447821;stroke:#447821;stroke-width:0.5291667;stroke-miterlimit:4;stroke-dasharray:none;stroke-opacity:1"
       d="m 260.958,204.38009 c 0,29.41271 -41.53913,26.40159 -88.03023,28.30999 -50.89885,2.08933 -128.842784,-2.35262 -91.81,-49.47666 18.17386,-23.12614 33.94047,-52.50046 80.47071,-52.50047 46.53025,1e-5 99.36952,44.25443 99.36952,73.66714 z"
       id="path5080"
       inkscape:connector-curvature="0"
       sodipodi:nodetypes="sssss" />
    <path
       style="color:#000000;font-style:normal;font-variant:normal;font-weight:normal;font-stretch:normal;font-size:medium;line-height:normal;font-family:sans-serif;font-variant-ligatures:normal;font-variant-position:normal;font-variant-caps:normal;font-variant-numeric:normal;font-variant-alternates:normal;font-feature-settings:normal;text-indent:0;text-align:start;text-decoration:none;text-decoration-line:none;text-decoration-style:solid;text-decoration-color:#000000;letter-spacing:normal;word-spacing:normal;text-transform:none;writing-mode:lr-tb;direction:ltr;text-orientation:mixed;dominant-baseline:auto;baseline-shift:baseline;text-anchor:start;white-space:normal;shape-padding:0;clip-rule:nonzero;display:inline;overflow:visible;visibility:visible;opacity:1;isolation:auto;mix-blend-mode:normal;color-interpolation:sRGB;color-interpolation-filters:linearRGB;solid-color:#000000;solid-opacity:1;vector-effect:none;fill:#447821;fill-opacity:1;fill-rule:nonzero;stroke:#447821;stroke-width:0.58804303;stroke-linecap:butt;stroke-linejoin:miter;stroke-miterlimit:4;stroke-dasharray:none;stroke-dashoffset:0;stroke-opacity:1;color-rendering:auto;image-rendering:auto;shape-rendering:auto;text-rendering:auto;enable-background:accumulate"
       d="m 47.736725,127.90835 c -6.320975,0.53659 -13.224807,4.02781 -18.700095,9.28123 -7.300385,7.00456 -12.077577,17.20372 -9.410672,27.82818 1.634372,6.51103 7.165091,10.24224 13.748005,12.3329 6.582914,2.09065 14.256759,2.56888 20.342283,2.56888 1.824908,0 3.571195,-0.32484 5.269039,-0.80388 4.295606,0.51229 6.81101,2.63466 8.715082,5.41903 2.332238,3.41048 3.83545,7.70406 6.919738,10.61883 l 0.387148,-0.44513 c -2.942703,-2.78096 -4.441433,-7.01862 -6.836777,-10.52139 -1.777594,-2.59941 -4.104927,-4.76167 -7.855699,-5.54969 0.693706,-0.25043 1.417841,-0.42171 2.080389,-0.7463 2.666821,-1.30647 5.065696,-3.19525 7.079276,-5.52755 0.922302,-1.06828 1.983851,-1.11654 3.073783,-1.27558 0.544966,-0.0795 1.095425,-0.1851 1.59539,-0.49164 0.499965,-0.30654 0.92938,-0.81745 1.225259,-1.6277 0.591777,-1.62057 0.722847,-4.41756 0.733879,-7.2837 0.0078,-2.04676 -0.04675,-3.72338 -0.08296,-5.37695 1.503748,5.33168 4.475207,8.54169 7.976954,10.86242 3.96373,2.62691 8.48002,4.3314 12.03988,7.36121 l 0.36587,-0.46506 c -3.66179,-3.11658 -8.20668,-4.82483 -12.09731,-7.40329 -3.889136,-2.57745 -7.132866,-5.98258 -8.319429,-12.55655 -0.0013,-7.04346 -1.203115,-12.30603 -4.596849,-16.38333 -3.402064,-4.08732 -8.960377,-6.95316 -17.600339,-9.32109 -1.903458,-0.52168 -3.944853,-0.67271 -6.051845,-0.49385 z m 0.04254,0.609 c 2.051814,-0.17799 4.031605,-0.0367 5.862524,0.46506 8.587962,2.35368 14.025434,5.18545 17.311042,9.13285 3.285607,3.94741 4.463166,9.04116 4.458582,16.04007 -0.0012,1.77331 0.12795,4.68143 0.116996,7.5273 -0.01096,2.84587 -0.17914,5.64514 -0.699845,7.07109 -0.260367,0.71301 -0.5904,1.08857 -0.978505,1.32653 -0.388105,0.23796 -0.853771,0.33503 -1.380543,0.41191 -1.053546,0.15373 -2.355724,0.23246 -3.422644,1.46825 -1.964865,2.27588 -4.302712,4.11742 -6.896338,5.38803 -1.041257,0.51013 -2.151043,0.85554 -3.267358,1.17372 -0.957499,-0.10806 -1.884605,-0.24556 -3.022731,-0.17717 l 0.03191,0.60015 c 0.265305,-0.016 0.445743,0.0435 0.699845,0.0376 -0.950664,0.1476 -1.890204,0.3366 -2.875955,0.3366 -6.056293,0 -13.68766,-0.48226 -20.174235,-2.5423 -6.486575,-2.06006 -11.791093,-5.66697 -13.35873,-11.91213 -2.601502,-10.36391 2.056968,-20.33817 9.244751,-27.23468 5.390838,-5.17239 12.195789,-8.57893 18.351237,-9.11293 z"
       id="path5088"
       inkscape:connector-curvature="0" />
    <path
       style="fill:#447821;fill-opacity:1;stroke:#447821;stroke-width:0.84006149;stroke-miterlimit:4;stroke-dasharray:none;stroke-opacity:1"
       d="m 42.893781,178.52568 c -7.580086,-0.91761 -14.802196,-3.64829 -18.499149,-6.99452 -1.012256,-0.91622 -2.279091,-2.7243 -3.047849,-4.35002 -1.134477,-2.3991 -1.341283,-3.35532 -1.502303,-6.94628 -0.389164,-8.67869 3.398011,-16.84797 10.840092,-23.38306 8.231631,-7.22841 16.705874,-9.51954 25.511393,-6.89736 10.561505,3.14509 16.410247,8.2829 18.319514,16.09273 0.726034,2.96983 0.958147,19.01605 0.312374,21.5949 -0.532093,2.12488 -0.555425,2.14764 -2.782757,2.71427 -1.742472,0.44329 -2.775521,1.08165 -4.606767,2.8467 -3.210563,3.09451 -6.825335,4.939 -9.679268,4.939 -1.209111,0 -2.198386,0.19286 -2.198386,0.42857 0,0.51438 -8.28954,0.48497 -12.666894,-0.0449 z"
       id="path5095"
       inkscape:connector-curvature="0" />
    <path
       style="fill:#447821;fill-opacity:1;stroke:#447821;stroke-width:0.84006149;stroke-miterlimit:4;stroke-dasharray:none;stroke-opacity:1"
       d="m 72.890555,192.59171 c -0.4373,-0.64821 -1.83464,-2.93581 -3.1052,-5.08356 -2.59366,-4.38429 -4.68344,-6.71472 -6.96189,-7.76358 -0.84905,-0.39085 -1.54373,-0.82795 -1.54373,-0.97133 0,-0.14339 0.80858,-0.66967 1.79684,-1.16953 0.98826,-0.49985 3.1413,-2.08114 4.78453,-3.51396 2.01,-1.75263 3.34535,-2.60513 4.08065,-2.60513 2.81931,0 3.73473,-2.19421 3.7548,-8.99998 l 0.0133,-4.49999 1.29645,2.48794 c 1.71214,3.28565 5.14621,6.50631 9.41406,8.82903 1.90843,1.03863 3.53281,1.93988 3.60975,2.00277 0.0769,0.0629 -3.31536,4.86968 -7.53845,10.68175 -4.22309,5.81207 -7.77925,10.84117 -7.90258,11.17577 -0.33353,0.90486 -0.81169,0.74434 -1.6985,-0.5702 z"
       id="path5097"
       inkscape:connector-curvature="0"
       inkscape:transform-center-x="33.261861"
       inkscape:transform-center-y="51.295868" />
    <path
       style="fill:#808000;fill-opacity:1;stroke:#5aa02c;stroke-width:0.5291667;stroke-miterlimit:4;stroke-dasharray:none;stroke-opacity:1"
       d="m 124.52131,239.91859 c 1.73245,11.83413 -2.45029,19.92324 -13.15573,18.80111 -10.21504,-1.07072 -20.110603,-1.13855 -13.15571,-18.80111 3.78024,-9.60027 5.89001,-18.80111 13.15571,-18.80111 7.2657,-1e-5 11.65316,8.53731 13.15573,18.80111 z"
       id="path5101"
       inkscape:connector-curvature="0"
       sodipodi:nodetypes="sssss" />
    <path
       style="fill:#008000;fill-opacity:1;stroke:#008000;stroke-width:0.5291667;stroke-miterlimit:4;stroke-dasharray:none;stroke-opacity:1"
       d="m 116.88343,254.35788 c 1.83442,4.68241 0.12207,4.25032 -1.3294,4.44431 -1.48736,0.19878 -4.01886,-0.16966 -3.55772,-2.97687 0.34683,-2.1114 -0.0202,-4.0391 1.32939,-4.44432 1.34955,-0.40522 2.77723,0.98462 3.55773,2.97688 z"
       id="path5104-4"
       inkscape:connector-curvature="0"
       sodipodi:nodetypes="sssss" />
    <path
       style="fill:#808000;fill-opacity:1;stroke:#5aa02c;stroke-width:0.5291667;stroke-miterlimit:4;stroke-dasharray:none;stroke-opacity:1"
       d="m 205.79307,239.64556 c 3.52751,11.42824 0.6353,20.0633 -10.11555,20.59686 -10.25838,0.50913 -20.0472,1.96026 -15.8844,-16.5602 2.26263,-10.06658 2.93585,-19.48217 10.11553,-20.59686 7.17968,-1.1147 12.82498,6.64844 15.88442,16.5602 z"
       id="path5101-0"
       inkscape:connector-curvature="0"
       sodipodi:nodetypes="sssss" />
    <path
       style="fill:#008000;fill-opacity:1;stroke:#008000;stroke-width:0.5291667;stroke-miterlimit:4;stroke-dasharray:none;stroke-opacity:1"
       d="m 189.64513,256.20053 c 1.17445,4.88986 -0.4624,4.22685 -1.92675,4.21981 -1.50058,-0.007 -3.95755,-0.7196 -3.11552,-3.43697 0.63332,-2.04381 0.53437,-4.00364 1.92675,-4.21981 1.39239,-0.21618 2.61583,1.35644 3.11552,3.43697 z"
       id="path5104-7"
       inkscape:connector-curvature="0"
       sodipodi:nodetypes="sssss" />
    <path
       style="fill:#008000;fill-opacity:1;stroke:#008000;stroke-width:0.5291667;stroke-miterlimit:4;stroke-dasharray:none;stroke-opacity:1"
       d="m 201.5192,254.55653 c 2.53107,4.34555 0.7727,4.18128 -0.63182,4.59565 -1.43926,0.42462 -3.99731,0.44892 -3.97231,-2.39581 0.0188,-2.13961 -0.63963,-3.98818 0.63181,-4.59565 1.27141,-0.60747 2.89541,0.54688 3.97232,2.39581 z"
       id="path5104-4-2"
       inkscape:connector-curvature="0"
       sodipodi:nodetypes="sssss" />
    <ellipse
       style="fill:#000000;fill-opacity:1;stroke:#000000;stroke-width:0.58804297;stroke-miterlimit:4;stroke-dasharray:none;stroke-opacity:1.0"
       id="path5166"
       cx="44.277306"
       cy="152.60844"
       rx="6.9861221"
       ry="6.9700365" />
    <ellipse
       style="fill:#ffffff;fill-opacity:1;stroke:#ffffff;stroke-width:0.72581559;stroke-miterlimit:4;stroke-dasharray:none;stroke-opacity:1"
       id="path5168"
       cx="42.382607"
       cy="152.52008"
       rx="3.6676252"
       ry="4.030642"
       inkscape:transform-center-x="90.023532"
       inkscape:transform-center-y="9.6735509" />
    <path
       style="fill:none;stroke:#000000;stroke-width:0.58804303;stroke-linecap:butt;stroke-linejoin:miter;stroke-miterlimit:4;stroke-dasharray:none;stroke-opacity:1"
       d="m 21.085508,168.74138 c 11.665274,10.2809 26.778897,-5.45352 26.780138,-5.45481"
       id="path5170"
       inkscape:connector-curvature="0"
       sodipodi:nodetypes="cc" />
    <path
       style="fill:#000000;fill-opacity:1;stroke:#000000;stroke-width:0.22775503;stroke-miterlimit:4;stroke-dasharray:none;stroke-opacity:1"
       d="m 28.376652,161.06552 c 2e-6,0.97992 0.04677,0.28654 -1.260407,0.95539 -1.00594,0.51472 -2.009728,0.21242 -2.379177,-0.0592 -1.745179,-0.97991 1.458749,-1.51041 2.476131,-1.51041 1.017382,0 1.163453,-0.36574 1.163453,0.61418 z"
       id="path5172"
       inkscape:connector-curvature="0"
       sodipodi:nodetypes="cscsc" />
    <path
       style="fill:#808000;fill-opacity:1;stroke:#5aa02c;stroke-width:0.44145957;stroke-miterlimit:4;stroke-dasharray:none;stroke-opacity:1"
       d="m 158.16332,152.2768 c 6.04317,5.94036 -6.23537,9.41177 -16.57071,9.48672 -13.47345,0.0977 -19.75415,-3.77139 -14.9671,-9.48672 3.79126,-4.52644 6.701,-13.57905 14.9671,-13.57905 8.2661,0 12.22062,9.30297 16.57071,13.57905 z"
       id="path5175"
       inkscape:connector-curvature="0"
       sodipodi:nodetypes="sssss" />
    <path
       style="fill:#808000;fill-opacity:1;stroke:#5aa02c;stroke-width:0.44145957;stroke-miterlimit:4;stroke-dasharray:none;stroke-opacity:1"
       d="m 200.12189,151.43379 c 6.04317,5.94036 -6.23537,9.41177 -16.57071,9.48672 -13.47345,0.0977 -19.75415,-3.77139 -14.9671,-9.48672 3.79126,-4.52644 6.701,-13.57905 14.9671,-13.57905 8.2661,0 12.22062,9.30297 16.57071,13.57905 z"
       id="path5175-0"
       inkscape:connector-curvature="0"
       sodipodi:nodetypes="sssss" />
    <path
       style="fill:#808000;fill-opacity:1;stroke:#5aa02c;stroke-width:0.44145957;stroke-miterlimit:4;stroke-dasharray:none;stroke-opacity:1"
       d="m 129.56274,177.09166 c 6.04317,5.94036 -6.23537,9.41177 -16.57071,9.48672 -13.47345,0.0977 -19.754153,-3.77139 -14.9671,-9.48672 3.79126,-4.52644 6.701,-13.57905 14.9671,-13.57905 8.2661,0 12.22062,9.30297 16.57071,13.57905 z"
       id="path5175-08"
       inkscape:connector-curvature="0"
       sodipodi:nodetypes="sssss" />
    <path
       style="fill:#808000;fill-opacity:1;stroke:#5aa02c;stroke-width:0.44145957;stroke-miterlimit:4;stroke-dasharray:none;stroke-opacity:1"
       d="m 170.59254,181.6811 c 6.04317,5.94036 -6.23537,9.41177 -16.57071,9.48672 -13.47345,0.0977 -19.75415,-3.77139 -14.9671,-9.48672 3.79126,-4.52644 6.701,-13.57905 14.9671,-13.57905 8.2661,0 12.22062,9.30297 16.57071,13.57905 z"
       id="path5175-9"
       inkscape:connector-curvature="0"
       sodipodi:nodetypes="sssss" />
    <path
       style="fill:#808000;fill-opacity:1;stroke:#5aa02c;stroke-width:0.44145957;stroke-miterlimit:4;stroke-dasharray:none;stroke-opacity:1"
       d="m 207.78886,177.14538 c 6.04317,5.94036 -6.23537,9.41177 -16.57071,9.48672 -13.47345,0.0977 -19.75415,-3.77139 -14.9671,-9.48672 3.79126,-4.52644 6.701,-13.57905 14.9671,-13.57905 8.2661,0 12.22062,9.30297 16.57071,13.57905 z"
       id="path5175-2"
       inkscape:connector-curvature="0"
       sodipodi:nodetypes="sssss" />
    <path
       style="fill:#808000;fill-opacity:1;stroke:#5aa02c;stroke-width:0.44145957;stroke-miterlimit:4;stroke-dasharray:none;stroke-opacity:1"
       d="m 246.62679,186.17883 c 6.04317,5.94036 -6.23537,9.41177 -16.57071,9.48672 -13.47345,0.0977 -19.75415,-3.77139 -14.9671,-9.48672 3.79126,-4.52644 6.701,-13.57905 14.9671,-13.57905 8.2661,0 12.22062,9.30297 16.57071,13.57905 z"
       id="path5175-7"
       inkscape:connector-curvature="0"
       sodipodi:nodetypes="sssss" />
    <path
       style="fill:#808000;fill-opacity:1;stroke:#5aa02c;stroke-width:0.44145957;stroke-miterlimit:4;stroke-dasharray:none;stroke-opacity:1"
       d="m 112.45749,204.8877 c 6.04316,5.94036 -6.23538,9.41177 -16.570713,9.48672 -13.473454,0.0977 -19.754154,-3.77139 -14.967104,-9.48672 3.791264,-4.52644 6.701004,-13.57905 14.967104,-13.57905 8.266103,0 12.220623,9.30297 16.570713,13.57905 z"
       id="path5175-7-8"
       inkscape:connector-curvature="0"
       sodipodi:nodetypes="sssss" />
    <path
       style="fill:#808000;fill-opacity:1;stroke:#5aa02c;stroke-width:0.44145957;stroke-miterlimit:4;stroke-dasharray:none;stroke-opacity:1"
       d="m 153.617,208.09493 c 6.04317,5.94036 -6.23537,9.41177 -16.57071,9.48672 -13.47345,0.0977 -19.75415,-3.77139 -14.9671,-9.48672 3.79126,-4.52644 6.701,-13.57905 14.9671,-13.57905 8.2661,0 12.22062,9.30297 16.57071,13.57905 z"
       id="path5175-7-5"
       inkscape:connector-curvature="0"
       sodipodi:nodetypes="sssss" />
    <path
       style="fill:#808000;fill-opacity:1;stroke:#5aa02c;stroke-width:0.44145957;stroke-miterlimit:4;stroke-dasharray:none;stroke-opacity:1"
       d="m 201.19097,209.69854 c 6.04317,5.94036 -6.23537,9.41177 -16.57071,9.48672 -13.47345,0.0977 -19.75415,-3.77139 -14.9671,-9.48672 3.79126,-4.52644 6.701,-13.57905 14.9671,-13.57905 8.2661,0 12.22062,9.30297 16.57071,13.57905 z"
       id="path5175-7-3"
       inkscape:connector-curvature="0"
       sodipodi:nodetypes="sssss" />
    <path
       style="fill:#808000;fill-opacity:1;stroke:#5aa02c;stroke-width:0.44145957;stroke-miterlimit:4;stroke-dasharray:none;stroke-opacity:1"
       d="m 246.62679,211.8367 c 6.04317,5.94036 -6.23537,9.41177 -16.57071,9.48672 -13.47345,0.0977 -19.75415,-3.77139 -14.9671,-9.48672 3.79126,-4.52644 6.701,-13.57905 14.9671,-13.57905 8.2661,0 12.22062,9.30297 16.57071,13.57905 z"
       id="path5175-7-0"
       inkscape:connector-curvature="0"
       sodipodi:nodetypes="sssss" />
    <path
       style="fill:#008000;fill-opacity:1;stroke:#008000;stroke-width:0.52916676;stroke-miterlimit:4;stroke-dasharray:none;stroke-opacity:1"
       d="m 104.10797,252.36677 c 1.83442,4.68241 0.12207,4.25032 -1.3294,4.44431 -1.48736,0.19878 -4.01886,-0.16966 -3.55772,-2.97687 0.34683,-2.1114 -0.0202,-4.0391 1.32939,-4.44432 1.34955,-0.40522 2.77723,0.98462 3.55773,2.97688 z"
       id="path5104-4-28"
       inkscape:connector-curvature="0"
       sodipodi:nodetypes="sssss" />
    <path
       style="fill:#008000;fill-opacity:1;stroke:#008000;stroke-width:0.52916676;stroke-miterlimit:4;stroke-dasharray:none;stroke-opacity:1"
       d="m 110.74873,254.28708 c 0.43853,5.00977 -1.08229,4.11203 -2.52951,3.88854 -1.483,-0.22901 -3.80765,-1.29683 -2.57309,-3.85983 0.92855,-1.92772 1.12042,-3.88065 2.5295,-3.88855 1.40906,-0.008 2.38651,1.72831 2.5731,3.85984 z"
       id="path5104-4-8"
       inkscape:connector-curvature="0"
       sodipodi:nodetypes="sssss" />
    <path
       style="fill:#008000;fill-opacity:1;stroke:#008000;stroke-width:0.52916676;stroke-miterlimit:4;stroke-dasharray:none;stroke-opacity:1"
       d="m 195.50877,255.57401 c 1.83442,4.68241 0.12207,4.25032 -1.3294,4.44431 -1.48736,0.19878 -4.01886,-0.16966 -3.55772,-2.97687 0.34683,-2.1114 -0.0202,-4.0391 1.32939,-4.44432 1.34955,-0.40522 2.77723,0.98462 3.55773,2.97688 z"
       id="path5104-4-3"
       inkscape:connector-curvature="0"
       sodipodi:nodetypes="sssss" />
  </g>
</svg>
