<?xml version="1.0" encoding="UTF-8"?>
<!DOCTYPE svg PUBLIC "-//W3C//DTD SVG 1.1//EN" "http://www.w3.org/Graphics/SVG/1.1/DTD/svg11.dtd">
<svg version="1.1" xmlns="http://www.w3.org/2000/svg" xmlns:xlink="http://www.w3.org/1999/xlink" x="0" y="0" width="502.175" height="483.063" viewBox="0, 0, 502.175, 483.063">
  <defs>
    <clipPath id="Clip_1">
      <path d="M97.021,222.989 C103.229,243.661 146.549,287.789 175.771,285.989 C188.961,285.187 217.107,253.314 225.271,242.114 z"/>
    </clipPath>
  </defs>
  <g id="Layer_1">
    <path d="M296.905,162.239 C296.905,162.239 291.66,240.989 287.16,272.489 L243.65,261.984 L262.41,129.234 L296.905,162.239" fill="#513C15" id="path79076"/>
    <path d="M80.146,240.236 L100.396,238.739 L103.405,219.986 L72.65,198.239 L80.146,240.236" fill="#3C2E0F" id="path79078"/>
    <path d="M231.339,349.031 C231.339,349.031 262.522,383.182 280.347,392.091 C298.171,401.006 388.747,383.182 388.747,383.182 L269.947,316.364 L231.339,349.031" fill="#F6D2DC" id="path79080"/>
    <path d="M298.471,394.588 C290.392,394.587 283.912,393.874 280.347,392.091 C269.807,386.823 254.596,372.729 243.924,362.089 C243.753,358.843 243.588,355.489 243.428,352.046 C250.987,352.586 256.024,356.274 256.532,360.07 L274.644,356.955 C275.146,351.671 278.004,346.922 283.229,344.288 L278.209,349.185 C295.992,349.982 310.862,358.116 310.87,368.184 C310.872,370.552 310.052,373.027 308.254,375.539 C317.428,376.474 325.418,384.933 334.872,391.801 C321.941,393.405 308.875,394.588 298.471,394.588" fill="#DEBEC7" id="path79082"/>
    <path d="M10.592,313.08 L31.996,329.836 L53.518,346.669 C53.518,346.669 132.915,274.408 129.66,253.547 C128.056,243.33 121.461,235.266 113.418,229.148 C108.517,225.422 99.053,221.133 87.556,224.606 C64.213,231.658 10.592,313.08 10.592,313.08" fill="#F6D2DC" id="path79084"/>
    <path d="M245.394,218.109 C241.302,209.672 216.988,206.732 214.133,207.963 C190.171,189.703 102.322,213.075 90.355,227.841 C78.381,242.606 81.96,277.13 80.94,294.096 C78.022,342.45 86.207,371.334 85.208,398.489 C83.436,446.976 71.49,472.88 71.49,472.88 C163.22,498.037 266.896,468.661 266.896,468.661 C244.909,436.739 244.452,392.498 240.121,258.286 C239.853,250.221 247.855,223.172 245.394,218.109" fill="#F6D2DC" id="path79086"/>
    <path d="M97.021,222.989 C103.229,243.661 146.549,287.789 175.771,285.989 C188.961,285.187 217.107,253.314 225.271,242.114 L97.021,222.989" fill="#F8D2B4" id="path79088"/>
    <g clip-path="url(#Clip_1)" id="g79092">
      <path d="M124.021,264.052 C124.021,248.302 139.771,253.364 141.458,259.552 C147.646,249.989 156.083,258.427 157.771,263.489 C162.271,255.052 173.521,253.927 178.021,266.864 C182.521,254.489 193.208,254.489 196.583,265.739 C194.333,278.114 194.333,287.677 194.333,287.677 L166.771,297.802 L124.021,264.052" fill="#F2F1F0" id="path79090"/>
    </g>
    <path d="M452.654,360.365 C445.039,347.414 427.461,342.028 412.857,350.135 C396.749,359.086 392.853,379.195 404.533,392.779 C415.079,405.014 433.424,405.802 445.454,396.351 C456.529,387.661 459.637,372.213 452.654,360.365" fill="#F8D2B4" id="path79094"/>
    <path d="M143.94,329.372 L139.525,311.182 L135.116,292.971 C135.116,292.971 26.061,304.396 13.341,318.775 C6.88,326.067 6.128,334.786 8.117,343.013 C9.341,348.047 12.392,357.68 23.861,362.193 C41.439,369.099 143.94,329.372 143.94,329.372" fill="#F9D8BE" id="path79096"/>
    <path d="M101.654,350.592 L95.713,294.166 C95.713,294.166 23.439,302.062 9.025,313.945 C-5.383,325.807 -3.456,363.283 21.47,366.482 C46.396,369.682 101.654,350.592 101.654,350.592" fill="#F6D2DC" id="path79098"/>
    <path d="M254.275,202.289 C254.275,202.289 245.197,197.114 214.414,215.648 C199.768,224.451 188.174,273.705 186.135,284.976 C181.607,310.056 192.139,329.133 206.251,340.453 C220.349,351.773 221.565,350.943 242.87,352.013 C250.738,352.406 256.012,356.182 256.532,360.07 L274.644,356.955 L254.275,202.289" fill="#9C7755" id="path79100"/>
    <path d="M278.209,349.185 C300.175,350.17 317.697,362.349 308.254,375.539 C327.702,377.521 341.821,413.31 375.873,396.098 C363.076,384.623 347.502,343.083 347.502,343.083 L296.314,331.523 L278.209,349.185" fill="#9C7755" id="path79102"/>
    <path d="M256.532,360.07 C256.024,356.274 250.987,352.586 243.428,352.046 C243.243,352.033 243.057,352.022 242.87,352.013 C221.565,350.943 220.349,351.773 206.251,340.453 C194.4,330.946 185.072,315.968 185.071,296.557 C185.071,292.856 185.409,288.993 186.135,284.976 C188.174,273.705 199.768,224.451 214.414,215.648 C231.469,205.38 241.86,202.389 247.737,201.763 C236.382,204.83 225.831,215.626 218.746,232.924 C205.829,264.445 199.881,293.695 203.748,312.342 C207.608,330.989 230.425,343.125 243.854,344.601 C257.284,346.078 272.099,348.047 274.644,356.955 L256.532,360.07" fill="#816346" id="path79104"/>
    <path d="M358.217,400.766 C349.06,400.764 341.594,396.685 334.872,391.801 C325.418,384.933 317.428,376.474 308.254,375.539 C310.052,373.027 310.872,370.552 310.87,368.184 C310.862,358.116 295.992,349.982 278.209,349.185 L283.229,344.288 C285.951,342.916 289.316,342.118 293.324,342.118 C298.212,342.118 304.054,343.303 310.862,346.078 C333.974,355.5 329.888,369.281 325.698,372.494 C326.584,372.233 327.452,372.111 328.302,372.111 C335.388,372.111 341.325,380.574 347.565,387.38 C351.493,391.683 359.933,397.05 369.223,397.05 C371.402,397.051 373.628,396.755 375.854,396.081 C375.86,396.087 375.867,396.093 375.873,396.098 C369.305,399.418 363.483,400.766 358.217,400.766" fill="#816346" id="path79106"/>
    <path d="M407.071,333.661 C407.31,312.517 395.553,297.52 378.074,290.63 C365.727,285.764 353.401,279.435 354.287,271.364 C351.51,284.99 334.1,283.373 323.146,270.984 C312.198,258.567 303.943,246.459 314.096,238.478 C305.919,241.572 287.322,221.625 275.917,210.586 C256.11,191.461 231.662,201.389 218.746,232.924 C205.829,264.445 199.881,293.695 203.748,312.342 C207.608,330.989 230.425,343.125 243.854,344.601 C257.284,346.078 272.099,348.047 274.644,356.955 C275.727,345.564 287.75,336.656 310.862,346.078 C333.974,355.5 329.888,369.281 325.698,372.494 C333.967,370.055 340.576,379.758 347.565,387.38 C354.561,395.044 375.866,406.083 390.801,384.166 C400.715,369.576 406.832,356.182 407.071,333.661" fill="#9C7755" id="path79108"/>
    <path d="M459.545,388.701 C459.545,388.701 477.432,388.927 479.401,413.135 C481.025,405.633 501.339,404.184 502.154,419.955 C502.97,435.726 480.055,437.513 469.115,425.109 C458.174,412.713 445.166,390.002 445.166,390.002 L459.545,388.701" fill="#9C7755" id="path79110"/>
    <path d="M214.316,244.083 L296.554,269.958 L285.782,297.892 L212.087,256.971 L214.316,244.083" fill="#1A1919" id="path79112"/>
    <path d="M348.697,303.216 L341.279,331.341 L467.512,403.502 L469.986,392.568 L348.697,303.216" fill="#1A1919" id="path79114"/>
    <path d="M317.732,323.648 C320.207,329.583 317.935,334.856 310.63,332.205 C303.332,329.568 293.818,322.13 290.134,320.111 C281.914,315.611 273.941,322.642 273.941,329.92 C276.36,320.99 281.626,318.305 291.013,326.615 C300.407,334.927 309.4,335.349 312.978,334.877 C316.551,334.385 323.75,331.411 317.732,323.648" fill="#1A1919" id="path79116"/>
    <path d="M316.171,329.146 C314.378,329.392 312.725,328.127 312.486,326.334 C312.24,324.562 313.499,322.903 315.285,322.642 C317.085,322.411 318.737,323.662 318.969,325.455 C319.223,327.248 317.964,328.9 316.171,329.146" fill="#1A1919" id="path79118"/>
    <path d="M277.197,334.434 C275.404,334.687 273.751,333.435 273.505,331.642 C273.259,329.85 274.517,328.197 276.31,327.951 C278.111,327.705 279.756,328.95 280.002,330.764 C280.248,332.536 278.99,334.195 277.197,334.434" fill="#1A1919" id="path79120"/>
    <path d="M323.301,293.976 C329.284,293.062 332.392,288.661 326.703,284.091 C321.029,279.541 310.419,275.533 307.002,273.586 C299.38,269.184 299.162,254.461 304.998,250.903 C299.029,257.203 301.391,267.638 312.641,271.103 C323.905,274.584 328.63,281.58 329.987,284.695 C331.337,287.789 332.469,295.01 323.301,293.976" fill="#1A1919" id="path79122"/>
    <path d="M326.957,290.039 C326.275,288.492 324.468,287.767 322.9,288.45 C321.346,289.125 320.636,290.953 321.31,292.5 C321.986,294.06 323.806,294.764 325.361,294.096 C326.914,293.414 327.632,291.6 326.957,290.039" fill="#1A1919" id="path79124"/>
    <path d="M308.352,252.33 C307.677,250.763 305.87,250.059 304.316,250.748 C302.748,251.437 302.045,253.244 302.72,254.791 C303.402,256.359 305.216,257.062 306.777,256.373 C308.331,255.705 309.041,253.898 308.352,252.33" fill="#1A1919" id="path79126"/>
    <path d="M283.472,292.874 L316.416,309.213 L462.909,399.396 C463.449,399.728 464.156,399.56 464.488,399.02 C464.82,398.48 464.652,397.773 464.112,397.441 L317.574,307.23 L317.483,307.179 L284.492,290.817 C283.924,290.535 283.235,290.767 282.953,291.335 C282.671,291.904 282.904,292.593 283.472,292.874" fill="#FFFFFE" id="path79128"/>
    <path d="M287.652,286.739 L321.572,300.912 L464.266,397.526 C464.791,397.882 465.505,397.744 465.86,397.22 C466.216,396.695 466.078,395.981 465.554,395.626 L322.763,298.946 L322.561,298.837 L288.538,284.62 C287.952,284.375 287.28,284.652 287.035,285.237 C286.791,285.822 287.067,286.495 287.653,286.739" fill="#FFFFFE" id="path79130"/>
    <path d="M290.644,279.376 L325.131,293.139 L462.687,393.412 C463.199,393.785 463.917,393.672 464.29,393.161 C464.664,392.648 464.551,391.93 464.039,391.557 L326.367,291.199 L326.117,291.06 L291.495,277.244 C290.906,277.009 290.238,277.296 290.003,277.885 C289.768,278.474 290.055,279.142 290.644,279.377" fill="#FFFFFE" id="path79132"/>
    <path d="M294.252,274.256 L327.71,287.826 L461.973,388.214 C462.48,388.593 463.199,388.49 463.579,387.982 C463.959,387.475 463.855,386.755 463.348,386.376 L328.966,285.899 L328.71,285.754 L295.115,272.128 C294.527,271.89 293.858,272.173 293.619,272.761 C293.381,273.348 293.664,274.018 294.252,274.256" fill="#FFFFFE" id="path79134"/>
    <path d="M251.525,201.544 C251.525,201.544 256.082,231.799 246.632,240.145 C237.181,248.498 213.901,245.911 213.901,245.911 C213.901,245.911 227.267,198.239 251.525,201.544" fill="#1A1919" id="path79136"/>
    <path d="M480.28,392.836 C476.518,393.342 473.038,390.705 472.532,386.943 C472.025,383.182 474.655,379.701 478.424,379.195 C482.185,378.682 485.659,381.318 486.165,385.08 C486.679,388.856 484.049,392.322 480.28,392.836" fill="#1A1919" id="path79138"/>
    <path d="M467.188,442.575 C463.433,443.088 459.946,440.451 459.447,436.669 C458.933,432.914 461.577,429.447 465.339,428.934 C469.107,428.428 472.574,431.064 473.087,434.826 C473.6,438.588 470.964,442.068 467.188,442.575" fill="#1A1919" id="path79140"/>
    <path d="M475.871,386.693 L463.967,432.958 L471.379,434.865 L483.283,388.6" fill="#1A1919" id="path79142"/>
    <path d="M469.424,379.842 C465.662,380.349 462.189,377.719 461.682,373.95 C461.169,370.195 463.806,366.708 467.582,366.201 C471.336,365.695 474.803,368.325 475.323,372.107 C475.829,375.869 473.193,379.336 469.424,379.842" fill="#1A1919" id="path79144"/>
    <path d="M456.346,429.588 C452.577,430.101 449.103,427.458 448.604,423.682 C448.091,419.92 450.728,416.461 454.49,415.947 C458.251,415.434 461.724,418.078 462.238,421.833 C462.751,425.601 460.107,429.075 456.346,429.588" fill="#1A1919" id="path79146"/>
    <path d="M465.014,373.7 L453.118,419.951 L460.53,421.857 L472.427,375.606" fill="#1A1919" id="path79148"/>
    <path d="M265.405,336.986 C227.9,336.234 206.905,301.739 209.155,284.498 C220.405,310.739 232.4,321.236 265.405,336.986" fill="#C8B195" id="path79150"/>
    <path d="M60.163,342.892 C66.146,341.325 415.529,250.08 420.993,248.639 C421.822,249.047 431.033,254.419 440.23,259.734 L454.939,255.986 L421.794,240.216 L55.086,336.002 L38.858,362.123 L52.182,358.734 C55.979,351.154 59.769,343.525 60.163,342.892" fill="#62563A" id="path79152"/>
    <path d="M28.015,367.142 L463.854,256.695 C464.878,256.435 465.498,255.395 465.239,254.371 C464.979,253.346 463.938,252.726 462.914,252.986 L27.075,363.432 C26.05,363.692 25.43,364.732 25.69,365.757 C25.949,366.781 26.99,367.401 28.015,367.142" fill="#1A1919" id="path79154"/>
    <path d="M128.085,287.873 C112.44,293.653 103.728,308.461 103.06,324.26 C102.561,336.305 129.329,343.068 147.716,336.986 C166.103,330.891 178.203,318.775 169.161,300.263 C165.28,292.338 143.174,282.248 128.085,287.873" fill="#F8D2B4" id="path79156"/>
    <path d="M140.876,307.979 C143.059,312.434 144.899,316.288 146.17,319.978 C147.442,323.674 148.162,327.193 148.165,331.147 C148.165,331.844 148.142,332.555 148.095,333.286 C148.004,334.692 149.071,335.905 150.477,335.996 C151.883,336.086 153.096,335.02 153.187,333.614 C153.24,332.777 153.267,331.955 153.267,331.147 C153.27,326.556 152.403,322.395 150.994,318.315 C149.583,314.23 147.649,310.21 145.458,305.735 C144.838,304.469 143.309,303.946 142.044,304.566 C140.779,305.186 140.256,306.714 140.876,307.98" fill="#F3B991" id="path79158"/>
    <path d="M125.777,309.788 C127.635,314.275 129.217,318.198 130.319,321.974 C131.422,325.754 132.057,329.38 132.059,333.4 C132.059,334.623 131.999,335.884 131.874,337.2 C131.739,338.602 132.767,339.848 134.169,339.982 C135.572,340.117 136.818,339.089 136.952,337.687 C137.093,336.214 137.161,334.789 137.161,333.4 C137.163,328.831 136.422,324.661 135.217,320.543 C134.011,316.421 132.356,312.345 130.491,307.837 C129.952,306.535 128.46,305.916 127.159,306.455 C125.857,306.994 125.238,308.486 125.777,309.788" fill="#F3B991" id="path79160"/>
    <path d="M113.415,320.242 C114.569,323.152 115.542,325.677 116.213,328.073 C116.884,330.473 117.264,332.739 117.266,335.246 C117.266,336.101 117.221,336.986 117.124,337.918 C116.978,339.319 117.996,340.573 119.398,340.719 C120.799,340.864 122.053,339.847 122.199,338.445 C122.313,337.345 122.368,336.282 122.368,335.246 C122.369,332.208 121.891,329.422 121.125,326.696 C120.359,323.967 119.318,321.292 118.159,318.363 C117.64,317.053 116.157,316.412 114.848,316.931 C113.538,317.45 112.896,318.932 113.415,320.242" fill="#F3B991" id="path79162"/>
    <path d="M157.046,308.143 C158.139,311.237 159.066,313.946 159.709,316.535 C160.353,319.127 160.722,321.595 160.723,324.302 C160.723,325.483 160.651,326.711 160.497,328.017 C160.331,329.416 161.331,330.684 162.73,330.85 C164.129,331.016 165.398,330.017 165.563,328.618 C165.741,327.121 165.825,325.688 165.825,324.302 C165.826,321.121 165.38,318.191 164.66,315.303 C163.941,312.412 162.956,309.56 161.856,306.444 C161.387,305.116 159.93,304.419 158.601,304.888 C157.273,305.357 156.576,306.815 157.046,308.143" fill="#F3B991" id="path79164"/>
    <path d="M414.931,395.205 C425.774,401.287 437.516,399.81 445.623,393.497 C451.81,388.701 441.426,371.264 429.029,363.797 C416.612,356.344 404.448,354.846 399.983,367.594 C398.071,373.036 404.441,389.349 414.931,395.205" fill="#F8D2B4" id="path79166"/>
    <path d="M446.305,398.764 C447.39,397.922 448.152,396.775 448.599,395.559 C449.051,394.338 449.227,393.04 449.228,391.697 C449.223,389.261 448.652,386.636 447.691,383.9 C446.243,379.805 443.889,375.473 440.92,371.528 C437.946,367.589 434.364,364.038 430.345,361.611 L430.342,361.609 C425.198,358.524 419.734,356.884 414.552,356.88 C410.448,356.877 406.502,357.929 403.186,360.158 C399.868,362.379 397.244,365.772 395.726,370.141 C395.261,371.471 395.963,372.926 397.293,373.391 C398.623,373.855 400.078,373.154 400.543,371.824 C401.754,368.375 403.662,365.993 406.031,364.393 C408.404,362.8 411.302,361.984 414.552,361.982 C418.642,361.978 423.26,363.306 427.716,365.984 L427.713,365.982 C432.075,368.593 436.301,373.28 439.32,378.239 C440.833,380.715 442.054,383.255 442.88,385.598 C443.71,387.938 444.131,390.09 444.126,391.697 C444.127,392.583 444.001,393.292 443.817,393.781 C443.629,394.275 443.42,394.539 443.169,394.74 C442.058,395.605 441.859,397.208 442.725,398.32 C443.591,399.431 445.194,399.63 446.305,398.764" fill="#F3B991" id="path79168"/>
    <path d="M423.111,387.481 C425.697,384.244 427.997,381.33 429.793,378.133 C431.588,374.943 432.838,371.447 433.228,367.324 C433.363,365.921 432.335,364.675 430.933,364.54 C429.53,364.406 428.284,365.433 428.15,366.836 C427.816,370.236 426.861,372.917 425.343,375.638 C423.825,378.35 421.702,381.079 419.127,384.295 C418.247,385.395 418.425,387.001 419.526,387.881 C420.626,388.761 422.231,388.582 423.111,387.482" fill="#F3B991" id="path79170"/>
    <path d="M438.527,392.49 C440.053,389.984 441.429,387.698 442.479,385.168 C443.53,382.643 444.213,379.88 444.34,376.64 C444.397,375.232 443.302,374.045 441.894,373.988 C440.486,373.931 439.299,375.026 439.242,376.434 C439.129,379.1 438.615,381.153 437.765,383.216 C436.915,385.274 435.689,387.348 434.171,389.833 C433.437,391.036 433.817,392.606 435.02,393.34 C436.223,394.074 437.793,393.693 438.527,392.491" fill="#F3B991" id="path79172"/>
    <path d="M407.243,379.276 C410.112,377.69 412.701,375.347 414.673,372.344 C416.646,369.344 417.994,365.683 418.385,361.518 C418.517,360.116 417.487,358.871 416.085,358.739 C414.682,358.607 413.438,359.637 413.306,361.04 C412.987,364.399 411.923,367.235 410.409,369.543 C408.894,371.85 406.919,373.626 404.775,374.811 C403.542,375.492 403.095,377.044 403.776,378.278 C404.458,379.511 406.01,379.958 407.243,379.277" fill="#F3B991" id="path79174"/>
    <path d="M454.131,357.117 C463.391,357.447 465.409,369.45 457.815,381.164 C453.716,387.471 445.792,383.442 444.4,379.195 C443.127,375.258 438.022,356.513 454.131,357.117" fill="#F8D2B4" id="path79176"/>
    <path d="M456.448,378.519 C456.19,378.951 455.931,379.381 455.676,379.774 C455.111,380.638 454.537,381.128 453.972,381.437 C453.405,381.743 452.817,381.878 452.164,381.88 C451.077,381.889 449.802,381.443 448.773,380.718 C448.259,380.361 447.811,379.943 447.477,379.529 C447.141,379.116 446.923,378.709 446.824,378.4 L446.827,378.412 C446.327,376.888 445.162,372.689 445.173,368.753 C445.17,366.912 445.427,365.152 445.994,363.779 C446.527,362.475 445.903,360.985 444.599,360.452 C443.296,359.918 441.806,360.542 441.272,361.846 C440.359,364.088 440.075,366.47 440.071,368.753 C440.082,373.625 441.39,378.148 441.972,379.978 L441.976,379.99 C442.312,381.011 442.852,381.923 443.513,382.742 C444.509,383.966 445.788,384.99 447.255,385.746 C448.721,386.496 450.39,386.98 452.164,386.982 C453.568,386.985 455.041,386.663 456.403,385.923 C457.766,385.187 458.989,384.044 459.954,382.554 C460.275,382.059 460.565,381.576 460.828,381.136 C461.55,379.927 461.155,378.36 459.946,377.638 C458.737,376.915 457.171,377.31 456.448,378.52" fill="#F3B991" id="path79178"/>
    <path d="M37.202,306.479 C37.203,306.479 37.372,306.442 37.698,306.371 C40.143,305.834 51.303,303.41 63.535,301.124 C69.65,299.982 76.033,298.874 81.712,298.056 C87.382,297.236 92.387,296.712 95.558,296.716 L95.642,296.716 L95.644,296.555 L95.64,296.716 L95.642,296.716 L95.644,296.555 L95.64,296.716 C97.048,296.756 98.222,295.647 98.263,294.239 C98.303,292.83 97.194,291.656 95.786,291.616 C95.669,291.613 95.594,291.614 95.558,291.614 C93.592,291.614 91.236,291.776 88.573,292.049 C79.272,293.009 66.204,295.368 55.402,297.49 C44.607,299.612 36.111,301.496 36.098,301.498 C34.722,301.803 33.854,303.166 34.159,304.541 C34.464,305.917 35.827,306.785 37.202,306.48" fill="#DFBEC7" id="path79180"/>
    <path d="M82.998,292.193 L85.993,255.455 C86.108,254.051 85.062,252.82 83.658,252.705 C82.254,252.591 81.022,253.636 80.908,255.04 L77.912,291.779 C77.798,293.183 78.843,294.414 80.248,294.529 C81.652,294.643 82.883,293.598 82.998,292.193" fill="#DFBEC7" id="path79182"/>
    <path d="M48.4,120.424 C39.47,179.747 87.894,236.228 156.597,246.564 C225.222,256.9 288.13,217.209 297.06,157.865 C306.004,98.536 257.572,42.047 188.947,31.725 C120.252,21.375 57.336,61.101 48.4,120.424" fill="#F9D8BE" id="path79184"/>
    <path d="M187.715,169.5 C187.718,169.326 187.72,169.154 187.72,168.985 C187.723,163.952 186.293,159.855 183.86,156.99 C181.44,154.123 178.023,152.58 174.545,152.591 C171.521,152.589 168.473,153.728 165.925,155.895 C163.371,158.062 161.314,161.239 160.107,165.309 C159.705,166.66 160.475,168.08 161.826,168.482 C163.176,168.883 164.596,168.113 164.998,166.763 C165.967,163.502 167.521,161.233 169.226,159.785 C170.937,158.338 172.796,157.695 174.545,157.693 C176.557,157.704 178.452,158.52 179.971,160.292 C181.478,162.068 182.614,164.892 182.618,168.985 C182.618,169.125 182.616,169.265 182.614,169.405 C182.587,170.814 183.708,171.977 185.117,172.004 C186.525,172.03 187.689,170.909 187.715,169.501" fill="#F3B991" id="path79186"/>
    <path d="M238.926,188.437 C237.576,197.395 243.756,205.783 252.721,207.141 C261.735,208.49 270.095,202.303 271.452,193.317 C272.802,184.338 266.636,175.95 257.615,174.6 C248.65,173.25 240.275,179.437 238.926,188.437" fill="#F5C4AD" id="path79188"/>
    <path d="M110.085,169.031 C108.728,178.01 100.34,184.177 91.353,182.826 C82.353,181.476 76.194,173.109 77.544,164.123 C78.901,155.123 87.262,148.95 96.262,150.307 C105.24,151.642 111.435,160.031 110.085,169.031" fill="#F5C4AD" id="path79190"/>
    <path d="M142.573,191.652 C142.637,191.773 145.397,197.392 150.457,203.13 C152.992,205.997 156.107,208.902 159.815,211.133 C163.515,213.36 167.851,214.91 172.668,214.909 C176.661,214.913 180.935,213.832 185.307,211.372 C189.684,208.912 194.175,205.095 198.79,199.598 C199.696,198.518 199.555,196.909 198.476,196.004 C197.397,195.098 195.788,195.239 194.882,196.318 C190.568,201.46 186.513,204.844 182.808,206.924 C179.097,209.003 175.751,209.803 172.668,209.807 C168.958,209.806 165.554,208.627 162.442,206.76 C157.782,203.97 153.888,199.607 151.226,195.933 C149.893,194.099 148.861,192.442 148.17,191.256 C147.824,190.663 147.564,190.187 147.392,189.865 C147.306,189.704 147.243,189.582 147.202,189.503 L147.159,189.416 L147.15,189.398 C146.527,188.134 144.998,187.614 143.734,188.237 C142.47,188.859 141.95,190.389 142.573,191.652" fill="#E16049" id="path79192"/>
    <path d="M245.155,158.653 C247.56,146.017 227.092,122.414 214.295,157.514 C223.956,166.478 238.517,166.177 245.155,158.653" fill="#F3B991" id="path79194"/>
    <path d="M245.071,153.682 C245.401,155.419 245.451,157.127 245.155,158.653 C238.517,166.177 223.956,166.478 214.295,157.514 C214.879,155.932 215.469,154.49 216.081,153.141 C227.935,163.013 237.111,159.497 245.071,153.682" fill="#404644" id="path79196"/>
    <path d="M112.876,138.74 C114.304,125.943 140.818,109.42 142.71,146.742 C130.834,152.466 117.011,147.881 112.876,138.74" fill="#F3B991" id="path79198"/>
    <path d="M114.423,134.016 C113.6,135.576 113.045,137.193 112.876,138.74 C117.011,147.881 130.834,152.466 142.71,146.742 C142.625,145.055 142.471,143.508 142.288,142.031 C128.056,147.966 120.315,141.904 114.423,134.016" fill="#404644" id="path79200"/>
    <path d="M100.41,69.989 C100.41,69.989 54.65,198.984 100.41,277.734 C62.16,270.239 18.65,212.484 30.66,133.734 C42.655,54.984 89.905,-4.26 177.655,0.24 L100.41,69.989" fill="#513C15" id="path79202"/>
    <path d="M219.646,54.984 C219.646,54.984 142.4,115.734 69.655,129.986 C68.896,99.239 98.146,-5.013 177.655,0.24 C231.725,3.811 278.744,32.569 295.4,81.239 C303.219,104.133 302.896,126.984 296.905,162.239 C239.15,119.489 219.646,60.236 219.646,54.984" fill="#513C15" id="path79204"/>
    <path d="M287.146,145.736 C287.146,145.736 276.655,206.486 267.655,215.486 C299.9,195.236 299.9,132.236 299.9,132.236 L287.146,145.736" fill="#513C15" id="path79206"/>
    <path d="M415.593,188.508 C396.791,191.791 375.479,195.539 350.975,189.4 C349.949,189.141 348.908,189.773 348.655,190.786 C348.388,191.826 349.014,192.867 350.04,193.106 C375.339,199.434 397.079,195.623 416.261,192.263 C443.043,187.572 464.185,183.867 485.441,207.38 C486.144,208.174 487.353,208.224 488.134,207.52 C488.914,206.817 488.978,205.607 488.275,204.82 C465.613,179.732 442.431,183.797 415.593,188.508" fill="#C6C9CA" id="path79208"/>
    <path d="M444.463,145.294 L444.463,165.142 C444.463,166.197 445.314,167.062 446.369,167.062 C447.423,167.062 448.288,166.197 448.288,165.142 L448.288,145.294 C448.288,144.239 447.423,143.381 446.369,143.381 C445.314,143.381 444.463,144.239 444.463,145.294" fill="#989EA0" id="path79210"/>
    <path d="M447.304,164.742 C448.049,167.146 445.799,169.994 442.269,171.099 C438.732,172.209 435.252,171.154 434.507,168.75 C433.747,166.338 436.012,163.49 439.541,162.38 C443.071,161.275 446.544,162.33 447.304,164.742" fill="#989EA0" id="path79212"/>
    <path d="M483.458,190.294 L483.458,210.142 C483.458,211.197 484.316,212.062 485.371,212.062 C486.426,212.062 487.283,211.197 487.283,210.142 L487.283,190.294 C487.283,189.239 486.426,188.381 485.371,188.381 C484.316,188.381 483.458,189.239 483.458,190.294" fill="#989EA0" id="path79214"/>
    <path d="M486.299,209.742 C487.044,212.146 484.794,214.994 481.264,216.099 C477.728,217.209 474.247,216.154 473.502,213.75 C472.743,211.338 475.007,208.49 478.536,207.38 C482.073,206.275 485.539,207.33 486.299,209.742" fill="#989EA0" id="path79216"/>
    <path d="M390.463,184.303 L390.463,204.145 C390.463,205.2 391.314,206.064 392.369,206.064 C393.423,206.064 394.288,205.2 394.288,204.145 L394.288,184.303 C394.288,183.248 393.423,182.391 392.369,182.391 C391.314,182.391 390.463,183.248 390.463,184.303" fill="#989EA0" id="path79218"/>
    <path d="M393.304,203.744 C394.049,206.156 391.799,208.997 388.269,210.107 C384.732,211.219 381.252,210.142 380.507,207.731 C379.747,205.326 382.012,202.478 385.541,201.375 C389.071,200.278 392.544,201.333 393.304,203.744" fill="#989EA0" id="path79220"/>
    <path d="M393.078,183.389 L393.078,190.385 C393.078,190.385 398.893,192.951 399.568,196.2 C400.25,199.434 396.158,203.372 396.158,203.372 C403.668,199.279 403.499,195.849 403.154,193.458 C402.81,191.067 393.078,183.389 393.078,183.389" fill="#989EA0" id="path79222"/>
  </g>
</svg>
